<svg xmlns="http://www.w3.org/2000/svg" viewBox="0 0 1024 1024">
  <defs><linearGradient id="bg" x1="0" y1="0" x2="0" y2="1"><stop offset="0" stop-color="#1A130C"/><stop offset="1" stop-color="#0B0A09"/></linearGradient>
    <clipPath id="c"><rect x="100" y="100" width="824" height="824" rx="186"/></clipPath></defs>
  <rect x="100" y="100" width="824" height="824" rx="186" fill="url(#bg)"/>
  <g clip-path="url(#c)"><path transform="translate(100 100)" fill="none" stroke="#EEE8DE" stroke-opacity=".07" stroke-width="2" d="M532.5 0.0L533.0 8.0M656.0 5.1L654.6 8.0M658.7 0.0L656.0 5.1M533.0 8.0L534.6 16.0M648.0 12.7L643.4 16.0M654.6 8.0L648.0 12.7M534.6 16.0L536.0 20.3M537.3 24.0L536.0 20.3M632.0 22.3L629.8 24.0M640.0 17.7L632.0 22.3M643.4 16.0L640.0 17.7M537.3 24.0L541.2 32.0M624.0 28.3L620.3 32.0M629.8 24.0L624.0 28.3M541.2 32.0L544.0 36.5M546.1 40.0L544.0 36.5M616.0 36.8L613.6 40.0M620.3 32.0L616.0 36.8M546.1 40.0L551.9 48.0M613.6 40.0L608.1 48.0M551.9 48.0L552.0 48.2M559.2 56.0L552.0 48.2M608.0 48.2L602.1 56.0M608.1 48.0L608.0 48.2M559.2 56.0L560.0 56.6M568.0 61.6L560.0 56.6M573.9 64.0L568.0 61.6M592.0 63.6L590.6 64.0M600.0 58.1L592.0 63.6M602.1 56.0L600.0 58.1M8.0 70.8L0.0 69.5M10.6 72.0L8.0 70.8M573.9 64.0L576.0 64.7M584.0 65.4L576.0 64.7M590.6 64.0L584.0 65.4M10.6 72.0L16.0 74.4M23.9 80.0L16.0 74.4M23.9 80.0L24.0 80.0M31.7 88.0L24.0 80.0M31.7 88.0L32.0 88.4M36.8 96.0L32.0 88.4M448.0 94.1L440.2 96.0M456.0 92.7L448.0 94.1M464.0 92.0L456.0 92.7M472.0 91.9L464.0 92.0M480.0 93.2L472.0 91.9M483.2 96.0L480.0 93.2M36.8 96.0L39.6 104.0M432.0 100.0L425.9 104.0M440.0 96.1L432.0 100.0M440.2 96.0L440.0 96.1M483.2 96.0L487.7 104.0M39.6 104.0L39.7 112.0M425.9 104.0L424.7 112.0M487.7 104.0L488.0 105.9M488.5 112.0L488.0 105.9M39.7 112.0L36.9 120.0M424.7 112.0L430.0 120.0M488.5 112.0L488.9 120.0M32.0 127.4L31.6 128.0M36.9 120.0L32.0 127.4M430.0 120.0L432.0 122.5M436.4 128.0L432.0 122.5M488.9 120.0L490.3 128.0M24.0 135.5L23.4 136.0M31.6 128.0L24.0 135.5M436.4 128.0L440.0 134.5M440.7 136.0L440.0 134.5M490.3 128.0L493.1 136.0M16.0 141.0L8.8 144.0M23.4 136.0L16.0 141.0M440.7 136.0L442.1 144.0M493.1 136.0L496.0 141.6M497.2 144.0L496.0 141.6M8.0 144.3L0.0 145.6M8.8 144.0L8.0 144.3M442.1 144.0L440.9 152.0M497.2 144.0L501.9 152.0M440.0 153.6L436.1 160.0M440.9 152.0L440.0 153.6M501.9 152.0L504.0 155.6M506.5 160.0L504.0 155.6M424.0 167.9L423.9 168.0M432.0 163.6L424.0 167.9M436.1 160.0L432.0 163.6M506.5 160.0L507.4 168.0M416.0 172.0L410.7 176.0M423.9 168.0L416.0 172.0M504.0 174.9L503.4 176.0M507.4 168.0L504.0 174.9M408.0 178.3L403.3 184.0M410.7 176.0L408.0 178.3M496.0 183.2L495.0 184.0M503.4 176.0L496.0 183.2M328.0 191.4L325.3 192.0M330.0 192.0L328.0 191.4M400.0 189.7L398.9 192.0M403.3 184.0L400.0 189.7M488.0 188.5L480.2 192.0M495.0 184.0L488.0 188.5M320.0 193.3L313.4 200.0M325.3 192.0L320.0 193.3M330.0 192.0L336.0 194.4M340.9 200.0L336.0 194.4M398.9 192.0L396.2 200.0M472.0 197.2L469.7 200.0M480.0 192.1L472.0 197.2M480.2 192.0L480.0 192.1M312.0 202.0L309.3 208.0M313.4 200.0L312.0 202.0M340.9 200.0L344.0 205.4M345.2 208.0L344.0 205.4M396.2 200.0L394.3 208.0M469.7 200.0L467.0 208.0M309.3 208.0L307.4 216.0M345.2 208.0L347.9 216.0M394.3 208.0L392.6 216.0M467.0 208.0L467.9 216.0M307.4 216.0L307.6 224.0M347.9 216.0L348.8 224.0M392.0 221.3L391.6 224.0M392.6 216.0L392.0 221.3M467.9 216.0L471.1 224.0M307.6 224.0L309.8 232.0M348.8 224.0L347.5 232.0M391.6 224.0L391.8 232.0M471.1 224.0L472.0 225.7M478.2 232.0L472.0 225.7M309.8 232.0L312.0 237.7M313.4 240.0L312.0 237.7M347.5 232.0L344.8 240.0M391.8 232.0L392.0 234.1M392.4 240.0L392.0 234.1M478.2 232.0L480.0 233.5M488.0 238.3L480.0 233.5M490.2 240.0L488.0 238.3M313.4 240.0L318.6 248.0M344.0 242.0L340.4 248.0M344.8 240.0L344.0 242.0M392.4 240.0L393.0 248.0M490.2 240.0L496.0 245.1M498.8 248.0L496.0 245.1M144.0 254.6L143.0 256.0M152.0 253.7L144.0 254.6M154.4 256.0L152.0 253.7M318.6 248.0L320.0 250.5M327.7 256.0L320.0 250.5M336.0 254.4L329.1 256.0M340.4 248.0L336.0 254.4M393.0 248.0L393.7 256.0M498.8 248.0L503.7 256.0M143.0 256.0L139.1 264.0M154.4 256.0L160.0 262.2M160.9 264.0L160.0 262.2M327.7 256.0L328.0 256.4M329.1 256.0L328.0 256.4M393.7 256.0L394.1 264.0M503.7 256.0L504.0 257.7M504.9 264.0L504.0 257.7M139.1 264.0L136.7 272.0M160.9 264.0L162.2 272.0M394.1 264.0L394.3 272.0M504.0 267.6L502.9 272.0M504.9 264.0L504.0 267.6M136.0 276.7L135.4 280.0M136.7 272.0L136.0 276.7M160.0 276.0L156.5 280.0M162.2 272.0L160.0 276.0M394.3 272.0L394.4 280.0M502.9 272.0L500.4 280.0M128.0 287.7L127.1 288.0M135.4 280.0L128.0 287.7M144.0 286.3L138.8 288.0M152.0 283.2L144.0 286.3M156.5 280.0L152.0 283.2M328.0 282.2L321.4 288.0M335.2 288.0L328.0 282.2M394.4 280.0L394.5 288.0M500.4 280.0L496.3 288.0M96.0 293.3L90.7 296.0M104.0 291.2L96.0 293.3M112.0 290.2L104.0 291.2M120.0 289.1L112.0 290.2M127.1 288.0L120.0 289.1M138.8 288.0L136.3 296.0M320.0 288.9L314.8 296.0M321.4 288.0L320.0 288.9M335.2 288.0L336.0 288.8M338.4 296.0L336.0 288.8M394.5 288.0L394.7 296.0M496.0 288.4L488.5 296.0M496.3 288.0L496.0 288.4M88.0 298.0L83.3 304.0M90.7 296.0L88.0 298.0M136.3 296.0L136.1 304.0M312.0 299.1L305.6 304.0M314.8 296.0L312.0 299.1M338.4 296.0L340.3 304.0M394.7 296.0L394.8 304.0M488.0 296.4L480.6 304.0M488.5 296.0L488.0 296.4M4.6 312.0L0.0 311.2M83.3 304.0L80.1 312.0M136.1 304.0L136.2 312.0M280.0 311.7L279.1 312.0M288.0 310.1L280.0 311.7M296.0 308.3L288.0 310.1M304.0 305.1L296.0 308.3M305.6 304.0L304.0 305.1M340.3 304.0L341.5 312.0M394.8 304.0L394.9 312.0M480.0 304.7L476.4 312.0M480.6 304.0L480.0 304.7M4.6 312.0L8.0 313.0M15.9 320.0L8.0 313.0M80.0 312.5L78.4 320.0M80.1 312.0L80.0 312.5M136.2 312.0L136.7 320.0M272.0 315.7L266.9 320.0M279.1 312.0L272.0 315.7M341.5 312.0L341.7 320.0M394.9 312.0L395.0 320.0M476.4 312.0L474.9 320.0M15.9 320.0L16.0 320.2M18.1 328.0L16.0 320.2M78.4 320.0L77.3 328.0M136.7 320.0L138.2 328.0M266.9 320.0L271.3 328.0M341.7 320.0L340.5 328.0M395.0 320.0L394.1 328.0M474.9 320.0L477.8 328.0M18.1 328.0L17.3 336.0M77.3 328.0L76.7 336.0M138.2 328.0L140.9 336.0M271.3 328.0L272.0 328.3M280.0 330.3L272.0 328.3M288.0 331.3L280.0 330.3M296.0 331.9L288.0 331.3M304.0 332.7L296.0 331.9M312.0 334.5L304.0 332.7M315.4 336.0L312.0 334.5M340.5 328.0L336.1 336.0M392.0 335.7L391.9 336.0M394.1 328.0L392.0 335.7M477.8 328.0L480.0 330.3M487.0 336.0L480.0 330.3M16.0 338.9L12.4 344.0M17.3 336.0L16.0 338.9M76.7 336.0L76.7 344.0M140.9 336.0L144.0 342.0M145.3 344.0L144.0 342.0M315.4 336.0L320.0 337.5M328.0 338.9L320.0 337.5M336.0 336.1L328.0 338.9M336.1 336.0L336.0 336.1M391.9 336.0L388.4 344.0M487.0 336.0L488.0 336.7M496.0 343.2L488.0 336.7M496.6 344.0L496.0 343.2M8.0 347.4L0.0 349.6M12.4 344.0L8.0 347.4M76.7 344.0L77.2 352.0M145.3 344.0L151.7 352.0M388.4 344.0L385.1 352.0M496.6 344.0L500.7 352.0M77.2 352.0L78.1 360.0M151.7 352.0L152.0 352.3M160.0 359.8L152.0 352.3M160.2 360.0L160.0 359.8M384.0 355.5L381.6 360.0M385.1 352.0L384.0 355.5M500.7 352.0L502.4 360.0M78.1 360.0L79.2 368.0M160.2 360.0L167.4 368.0M381.6 360.0L379.6 368.0M502.4 360.0L502.9 368.0M79.2 368.0L80.0 373.6M80.3 376.0L80.0 373.6M167.4 368.0L168.0 370.1M169.9 376.0L168.0 370.1M379.6 368.0L381.4 376.0M502.9 368.0L502.3 376.0M80.3 376.0L81.0 384.0M169.9 376.0L173.0 384.0M381.4 376.0L384.0 379.7M386.2 384.0L384.0 379.7M502.3 376.0L499.5 384.0M81.0 384.0L81.2 392.0M173.0 384.0L176.0 389.3M177.5 392.0L176.0 389.3M386.2 384.0L392.0 389.1M396.4 392.0L392.0 389.1M496.0 389.1L492.8 392.0M499.5 384.0L496.0 389.1M81.2 392.0L81.3 400.0M177.5 392.0L181.5 400.0M396.4 392.0L400.0 393.4M408.0 395.4L400.0 393.4M416.0 396.3L408.0 395.4M424.0 396.3L416.0 396.3M432.0 395.8L424.0 396.3M440.0 395.6L432.0 395.8M448.0 395.9L440.0 395.6M456.0 396.5L448.0 395.9M464.0 397.2L456.0 396.5M472.0 397.5L464.0 397.2M480.0 397.3L472.0 397.5M488.0 395.2L480.0 397.3M492.8 392.0L488.0 395.2M81.3 400.0L81.4 408.0M181.5 400.0L184.0 406.4M184.6 408.0L184.0 406.4M81.4 408.0L81.8 416.0M184.6 408.0L186.6 416.0M81.8 416.0L82.8 424.0M186.6 416.0L187.9 424.0M576.0 421.2L570.0 424.0M584.0 420.6L576.0 421.2M592.0 423.5L584.0 420.6M592.7 424.0L592.0 423.5M82.8 424.0L84.9 432.0M187.9 424.0L188.1 432.0M568.0 425.2L560.7 432.0M570.0 424.0L568.0 425.2M592.7 424.0L599.6 432.0M84.9 432.0L88.0 438.5M88.9 440.0L88.0 438.5M188.1 432.0L185.0 440.0M552.0 439.6L551.5 440.0M560.0 432.5L552.0 439.6M560.7 432.0L560.0 432.5M599.6 432.0L600.0 432.6M603.6 440.0L600.0 432.6M88.9 440.0L95.8 448.0M176.0 446.2L171.5 448.0M184.0 441.0L176.0 446.2M185.0 440.0L184.0 441.0M544.0 445.2L539.3 448.0M551.5 440.0L544.0 445.2M603.6 440.0L606.9 448.0M95.8 448.0L96.0 448.2M104.0 453.7L96.0 448.2M109.9 456.0L104.0 453.7M144.0 455.2L138.7 456.0M152.0 453.6L144.0 455.2M160.0 451.4L152.0 453.6M168.0 449.0L160.0 451.4M171.5 448.0L168.0 449.0M528.0 454.8L526.3 456.0M536.0 449.9L528.0 454.8M539.3 448.0L536.0 449.9M606.9 448.0L608.0 451.4M609.5 456.0L608.0 451.4M109.9 456.0L112.0 456.8M120.0 457.5L112.0 456.8M128.0 457.2L120.0 457.5M136.0 456.4L128.0 457.2M138.7 456.0L136.0 456.4M336.0 460.4L329.5 464.0M344.0 456.7L336.0 460.4M352.0 457.5L344.0 456.7M357.3 464.0L352.0 457.5M520.0 462.4L518.8 464.0M526.3 456.0L520.0 462.4M609.5 456.0L611.2 464.0M329.5 464.0L331.6 472.0M357.3 464.0L353.1 472.0M518.8 464.0L515.3 472.0M611.2 464.0L611.7 472.0M331.6 472.0L336.0 473.3M344.0 474.2L336.0 473.3M352.0 472.6L344.0 474.2M353.1 472.0L352.0 472.6M515.3 472.0L514.6 480.0M611.7 472.0L609.8 480.0M514.6 480.0L516.2 488.0M608.0 483.6L605.3 488.0M609.8 480.0L608.0 483.6M516.2 488.0L520.0 495.9M520.1 496.0L520.0 495.9M600.0 494.3L598.3 496.0M605.3 488.0L600.0 494.3M520.1 496.0L528.0 503.0M529.9 504.0L528.0 503.0M592.0 501.1L588.2 504.0M598.3 496.0L592.0 501.1M529.9 504.0L536.0 506.9M544.0 509.5L536.0 506.9M552.0 511.1L544.0 509.5M559.2 512.0L552.0 511.1M576.0 510.8L569.5 512.0M584.0 506.8L576.0 510.8M588.2 504.0L584.0 506.8M792.0 506.6L787.3 512.0M800.0 504.5L792.0 506.6M808.0 505.7L800.0 504.5M816.0 509.6L808.0 505.7M818.9 512.0L816.0 509.6M559.2 512.0L560.0 512.1M568.0 512.2L560.0 512.1M569.5 512.0L568.0 512.2M787.3 512.0L784.1 520.0M818.9 512.0L824.0 517.9M784.0 520.3L783.2 528.0M784.1 520.0L784.0 520.3M783.2 528.0L783.5 536.0M783.5 536.0L784.0 537.4M787.4 544.0L784.0 537.4M787.4 544.0L792.0 548.4M800.0 550.9L792.0 548.4M808.0 550.5L800.0 550.9M816.0 548.9L808.0 550.5M824.0 545.3L816.0 548.9M4.7 568.0L0.0 566.8M4.7 568.0L8.0 570.1M10.9 576.0L8.0 570.1M10.9 576.0L11.2 584.0M11.2 584.0L8.9 592.0M8.0 594.3L0.0 599.8M8.9 592.0L8.0 594.3M32.0 620.5L26.9 624.0M40.0 618.9L32.0 620.5M48.0 619.1L40.0 618.9M56.0 620.5L48.0 619.1M64.0 622.8L56.0 620.5M66.9 624.0L64.0 622.8M26.9 624.0L24.4 632.0M66.9 624.0L72.0 627.8M75.5 632.0L72.0 627.8M24.4 632.0L25.4 640.0M75.5 632.0L78.3 640.0M472.0 635.7L469.1 640.0M480.0 632.1L472.0 635.7M488.0 640.0L480.0 632.1M25.4 640.0L28.7 648.0M78.3 640.0L80.0 647.5M80.1 648.0L80.0 647.5M469.1 640.0L466.6 648.0M488.0 640.0L488.0 640.0M488.7 648.0L488.0 640.0M28.7 648.0L32.0 653.5M33.7 656.0L32.0 653.5M80.1 648.0L83.8 656.0M466.6 648.0L466.6 656.0M488.0 651.3L485.9 656.0M488.7 648.0L488.0 651.3M33.7 656.0L40.0 663.0M41.3 664.0L40.0 663.0M83.8 656.0L88.0 659.6M96.0 662.0L88.0 659.6M104.0 662.7L96.0 662.0M112.0 662.8L104.0 662.7M120.0 664.0L112.0 662.8M120.1 664.0L120.0 664.0M352.0 661.6L345.7 664.0M360.0 658.6L352.0 661.6M368.0 656.3L360.0 658.6M376.0 656.4L368.0 656.3M384.0 660.2L376.0 656.4M389.3 664.0L384.0 660.2M466.6 656.0L472.0 663.9M480.0 662.8L472.0 663.9M485.9 656.0L480.0 662.8M41.3 664.0L48.0 668.6M56.0 671.0L48.0 668.6M59.4 672.0L56.0 671.0M120.1 664.0L128.0 668.1M131.0 672.0L128.0 668.1M328.0 670.4L321.0 672.0M336.0 667.9L328.0 670.4M344.0 664.7L336.0 667.9M345.7 664.0L344.0 664.7M389.3 664.0L392.0 666.0M400.0 671.5L392.0 666.0M400.8 672.0L400.0 671.5M59.4 672.0L64.0 674.1M69.3 680.0L64.0 674.1M131.0 672.0L133.3 680.0M312.0 675.6L305.8 680.0M320.0 672.3L312.0 675.6M321.0 672.0L320.0 672.3M400.8 672.0L408.0 676.4M416.0 679.5L408.0 676.4M418.2 680.0L416.0 679.5M69.3 680.0L71.7 688.0M133.3 680.0L133.7 688.0M304.0 683.0L301.7 688.0M305.8 680.0L304.0 683.0M418.2 680.0L424.0 682.3M432.0 684.4L424.0 682.3M439.1 688.0L432.0 684.4M696.0 686.1L691.1 688.0M701.9 688.0L696.0 686.1M71.7 688.0L72.0 689.0M73.5 696.0L72.0 689.0M133.7 688.0L132.7 696.0M301.7 688.0L302.2 696.0M439.1 688.0L440.0 689.8M442.3 696.0L440.0 689.8M691.1 688.0L689.9 696.0M701.9 688.0L702.6 696.0M73.5 696.0L79.6 704.0M132.7 696.0L129.2 704.0M302.2 696.0L304.0 698.8M309.0 704.0L304.0 698.8M442.3 696.0L448.0 701.8M450.3 704.0L448.0 701.8M689.9 696.0L696.0 700.3M702.6 696.0L696.0 700.3M79.6 704.0L80.0 704.3M88.0 710.1L80.0 704.3M91.3 712.0L88.0 710.1M128.0 705.5L121.2 712.0M129.2 704.0L128.0 705.5M309.0 704.0L312.0 705.5M320.0 707.8L312.0 705.5M328.0 709.3L320.0 707.8M336.0 710.8L328.0 709.3M344.0 711.9L336.0 710.8M344.5 712.0L344.0 711.9M450.3 704.0L456.0 707.0M464.0 710.9L456.0 707.0M466.0 712.0L464.0 710.9M91.3 712.0L96.0 714.2M104.0 716.2L96.0 714.2M112.0 715.9L104.0 716.2M120.0 712.8L112.0 715.9M121.2 712.0L120.0 712.8M344.5 712.0L352.0 712.7M360.0 713.3L352.0 712.7M368.0 713.5L360.0 713.3M376.0 713.3L368.0 713.5M384.0 714.4L376.0 713.3M392.0 718.2L384.0 714.4M393.8 720.0L392.0 718.2M466.0 712.0L472.0 714.6M480.0 718.0L472.0 714.6M484.0 720.0L480.0 718.0M393.8 720.0L398.2 728.0M484.0 720.0L488.0 722.0M496.0 726.7L488.0 722.0M498.2 728.0L496.0 726.7M398.2 728.0L400.0 735.6M400.1 736.0L400.0 735.6M498.2 728.0L504.0 731.8M511.1 736.0L504.0 731.8M400.1 736.0L400.9 744.0M511.1 736.0L512.0 736.8M520.0 744.0L512.0 736.8M520.1 744.0L520.0 744.0M400.9 744.0L401.0 752.0M520.1 744.0L521.9 752.0M401.0 752.0L400.1 760.0M521.9 752.0L523.0 760.0M400.0 760.5L397.7 768.0M400.1 760.0L400.0 760.5M523.0 760.0L523.9 768.0M392.0 775.7L391.6 776.0M397.7 768.0L392.0 775.7M523.9 768.0L524.8 776.0M376.0 783.1L373.7 784.0M384.0 780.4L376.0 783.1M391.6 776.0L384.0 780.4M524.8 776.0L525.8 784.0M256.0 791.3L253.1 792.0M264.0 789.9L256.0 791.3M272.0 791.4L264.0 789.9M272.6 792.0L272.0 791.4M368.0 787.0L363.4 792.0M373.7 784.0L368.0 787.0M525.8 784.0L526.5 792.0M248.0 795.1L240.5 800.0M253.1 792.0L248.0 795.1M272.6 792.0L275.4 800.0M363.4 792.0L360.8 800.0M526.5 792.0L526.8 800.0M240.5 800.0L248.0 805.1M256.0 808.0L248.0 805.1M256.2 808.0L256.0 808.0M272.0 806.9L268.7 808.0M275.4 800.0L272.0 806.9M360.8 800.0L362.1 808.0M520.0 806.6L517.6 808.0M526.8 800.0L520.0 806.6M256.2 808.0L264.0 808.6M268.7 808.0L264.0 808.6M362.1 808.0L365.7 816.0M496.0 813.0L489.4 816.0M504.0 811.0L496.0 813.0M512.0 809.4L504.0 811.0M517.6 808.0L512.0 809.4M365.7 816.0L368.0 819.4M373.9 824.0L368.0 819.4M480.0 821.3L476.2 824.0M488.0 816.5L480.0 821.3M489.4 816.0L488.0 816.5M520.7 0.0L520.7 8.0M711.2 0.0L708.4 8.0M520.7 8.0L520.8 16.0M704.0 12.8L699.6 16.0M708.4 8.0L704.0 12.8M520.8 16.0L521.2 24.0M672.0 21.6L664.4 24.0M680.0 19.8L672.0 21.6M688.0 19.2L680.0 19.8M696.0 17.9L688.0 19.2M699.6 16.0L696.0 17.9M521.2 24.0L522.0 32.0M648.0 29.5L641.8 32.0M656.0 26.7L648.0 29.5M664.0 24.1L656.0 26.7M664.4 24.0L664.0 24.1M522.0 32.0L523.9 40.0M632.0 37.1L628.6 40.0M640.0 32.7L632.0 37.1M641.8 32.0L640.0 32.7M523.9 40.0L528.0 46.7M528.9 48.0L528.0 46.7M624.0 44.5L621.2 48.0M628.6 40.0L624.0 44.5M528.9 48.0L536.0 54.9M537.0 56.0L536.0 54.9M616.0 55.6L615.7 56.0M621.2 48.0L616.0 55.6M8.0 59.3L0.0 58.0M16.0 63.0L8.0 59.3M17.5 64.0L16.0 63.0M537.0 56.0L544.0 61.0M548.0 64.0L544.0 61.0M615.7 56.0L609.3 64.0M17.5 64.0L24.0 68.2M28.5 72.0L24.0 68.2M472.0 70.7L468.5 72.0M480.0 68.6L472.0 70.7M488.0 68.8L480.0 68.6M493.3 72.0L488.0 68.8M548.0 64.0L552.0 66.2M560.0 70.5L552.0 66.2M563.3 72.0L560.0 70.5M600.0 71.7L599.4 72.0M608.0 65.4L600.0 71.7M609.3 64.0L608.0 65.4M28.5 72.0L32.0 75.0M36.9 80.0L32.0 75.0M448.0 78.5L442.9 80.0M456.0 76.0L448.0 78.5M464.0 73.4L456.0 76.0M468.5 72.0L464.0 73.4M493.3 72.0L496.0 74.7M498.3 80.0L496.0 74.7M563.3 72.0L568.0 73.9M576.0 76.3L568.0 73.9M584.0 76.9L576.0 76.3M592.0 75.4L584.0 76.9M599.4 72.0L592.0 75.4M36.9 80.0L40.0 83.7M43.4 88.0L40.0 83.7M424.0 85.0L418.3 88.0M432.0 83.0L424.0 85.0M440.0 80.9L432.0 83.0M442.9 80.0L440.0 80.9M498.3 80.0L500.0 88.0M43.4 88.0L48.0 96.0M416.0 89.8L411.9 96.0M418.3 88.0L416.0 89.8M500.0 88.0L500.8 96.0M48.0 96.0L48.0 96.1M50.7 104.0L48.0 96.1M411.9 96.0L409.6 104.0M500.8 96.0L501.2 104.0M50.7 104.0L50.5 112.0M409.6 104.0L409.3 112.0M501.2 104.0L501.6 112.0M48.0 118.3L47.4 120.0M50.5 112.0L48.0 118.3M409.3 112.0L410.2 120.0M501.6 112.0L502.6 120.0M47.4 120.0L42.4 128.0M410.2 120.0L411.1 128.0M502.6 120.0L504.0 124.5M505.1 128.0L504.0 124.5M40.0 130.9L35.6 136.0M42.4 128.0L40.0 130.9M411.1 128.0L411.5 136.0M505.1 128.0L509.1 136.0M32.0 139.5L26.7 144.0M35.6 136.0L32.0 139.5M411.5 136.0L410.8 144.0M509.1 136.0L512.0 140.4M515.0 144.0L512.0 140.4M16.0 151.1L13.7 152.0M24.0 146.2L16.0 151.1M26.7 144.0L24.0 146.2M408.0 150.8L407.4 152.0M410.8 144.0L408.0 150.8M515.0 144.0L520.0 149.9M522.5 152.0L520.0 149.9M8.0 154.5L0.0 155.8M13.7 152.0L8.0 154.5M407.4 152.0L400.2 160.0M522.5 152.0L528.0 158.7M529.6 160.0L528.0 158.7M392.0 167.6L391.6 168.0M400.0 160.1L392.0 167.6M400.2 160.0L400.0 160.1M529.6 160.0L531.0 168.0M328.0 174.1L321.0 176.0M336.0 174.4L328.0 174.1M340.2 176.0L336.0 174.4M391.6 168.0L385.7 176.0M528.0 172.4L526.2 176.0M531.0 168.0L528.0 172.4M312.0 182.5L310.9 184.0M320.0 176.3L312.0 182.5M321.0 176.0L320.0 176.3M340.2 176.0L344.0 177.8M351.8 184.0L344.0 177.8M384.0 180.9L382.7 184.0M385.7 176.0L384.0 180.9M520.0 182.6L518.8 184.0M526.2 176.0L520.0 182.6M310.9 184.0L305.5 192.0M351.8 184.0L352.0 184.2M357.6 192.0L352.0 184.2M382.7 184.0L380.9 192.0M512.0 190.5L510.3 192.0M518.8 184.0L512.0 190.5M112.0 199.4L107.5 200.0M120.0 198.8L112.0 199.4M128.0 199.0L120.0 198.8M133.6 200.0L128.0 199.0M304.0 194.6L301.6 200.0M305.5 192.0L304.0 194.6M357.6 192.0L360.0 198.6M360.7 200.0L360.0 198.6M380.9 192.0L379.6 200.0M504.0 198.0L501.5 200.0M510.3 192.0L504.0 198.0M88.0 208.0L88.0 208.0M96.0 203.4L88.0 208.0M104.0 200.6L96.0 203.4M107.5 200.0L104.0 200.6M133.6 200.0L136.0 200.6M144.0 205.2L136.0 200.6M146.7 208.0L144.0 205.2M301.6 200.0L298.9 208.0M360.7 200.0L364.6 208.0M379.6 200.0L377.7 208.0M496.0 207.3L495.4 208.0M501.5 200.0L496.0 207.3M88.0 208.0L83.2 216.0M146.7 208.0L152.0 215.5M152.3 216.0L152.0 215.5M298.9 208.0L297.5 216.0M364.6 208.0L368.0 213.6M376.0 212.2L368.0 213.6M377.7 208.0L376.0 212.2M495.4 208.0L496.0 211.6M496.7 216.0L496.0 211.6M83.2 216.0L82.9 224.0M152.3 216.0L156.7 224.0M297.5 216.0L297.5 224.0M496.7 216.0L502.8 224.0M584.0 219.7L579.5 224.0M592.0 220.9L584.0 219.7M599.6 224.0L592.0 220.9M82.9 224.0L86.3 232.0M156.7 224.0L160.0 230.0M160.8 232.0L160.0 230.0M297.5 224.0L298.8 232.0M502.8 224.0L504.0 225.2M510.4 232.0L504.0 225.2M576.0 226.5L572.0 232.0M579.5 224.0L576.0 226.5M599.6 224.0L600.0 224.2M606.3 232.0L600.0 224.2M86.3 232.0L88.0 234.5M94.6 240.0L88.0 234.5M160.8 232.0L165.3 240.0M298.8 232.0L300.7 240.0M510.4 232.0L512.0 233.6M518.0 240.0L512.0 233.6M568.0 238.2L566.9 240.0M572.0 232.0L568.0 238.2M606.3 232.0L606.8 240.0M94.6 240.0L96.0 240.9M104.0 244.7L96.0 240.9M110.2 248.0L104.0 244.7M165.3 240.0L168.0 244.0M170.5 248.0L168.0 244.0M300.7 240.0L302.8 248.0M518.0 240.0L520.0 242.7M524.0 248.0L520.0 242.7M566.9 240.0L563.4 248.0M606.8 240.0L605.9 248.0M110.2 248.0L112.0 249.4M116.1 256.0L112.0 249.4M170.5 248.0L175.9 256.0M302.8 248.0L304.0 253.3M304.8 256.0L304.0 253.3M524.0 248.0L527.0 256.0M563.4 248.0L562.9 256.0M605.9 248.0L604.3 256.0M116.1 256.0L117.0 264.0M175.9 256.0L176.0 256.2M180.6 264.0L176.0 256.2M304.8 256.0L305.9 264.0M527.0 256.0L526.2 264.0M562.9 256.0L566.7 264.0M604.3 256.0L601.8 264.0M117.0 264.0L113.5 272.0M180.6 264.0L182.5 272.0M305.9 264.0L304.9 272.0M526.2 264.0L523.3 272.0M566.7 264.0L568.0 265.2M576.0 272.0L568.0 265.2M576.0 272.0L576.0 272.0M600.0 267.2L595.4 272.0M601.8 264.0L600.0 267.2M80.0 277.3L73.2 280.0M88.0 276.9L80.0 277.3M96.0 276.7L88.0 276.9M104.0 275.9L96.0 276.7M112.0 273.2L104.0 275.9M113.5 272.0L112.0 273.2M182.5 272.0L179.4 280.0M304.0 274.2L301.7 280.0M304.9 272.0L304.0 274.2M523.3 272.0L522.9 280.0M576.0 272.0L584.0 274.4M592.0 273.9L584.0 274.4M595.4 272.0L592.0 273.9M72.0 281.0L69.2 288.0M73.2 280.0L72.0 281.0M176.0 283.8L172.0 288.0M179.4 280.0L176.0 283.8M296.0 287.3L295.4 288.0M301.7 280.0L296.0 287.3M522.9 280.0L524.6 288.0M69.2 288.0L68.2 296.0M168.0 291.2L161.7 296.0M172.0 288.0L168.0 291.2M288.0 293.3L282.5 296.0M295.4 288.0L288.0 293.3M524.6 288.0L527.9 296.0M8.0 302.6L0.0 302.0M13.8 304.0L8.0 302.6M68.2 296.0L67.7 304.0M160.0 297.3L152.8 304.0M161.7 296.0L160.0 297.3M264.0 303.1L262.2 304.0M272.0 300.1L264.0 303.1M280.0 297.1L272.0 300.1M282.5 296.0L280.0 297.1M527.9 296.0L528.0 296.2M530.4 304.0L528.0 296.2M13.8 304.0L16.0 304.8M24.0 309.8L16.0 304.8M26.3 312.0L24.0 309.8M67.7 304.0L67.0 312.0M152.0 305.2L149.0 312.0M152.8 304.0L152.0 305.2M256.0 308.7L253.1 312.0M262.2 304.0L256.0 308.7M530.4 304.0L531.5 312.0M26.3 312.0L31.0 320.0M67.0 312.0L65.7 320.0M149.0 312.0L148.6 320.0M253.1 312.0L249.9 320.0M368.0 314.0L367.4 320.0M370.3 320.0L368.0 314.0M531.5 312.0L530.2 320.0M31.0 320.0L32.0 323.5M33.7 328.0L32.0 323.5M64.0 327.9L64.0 328.0M65.7 320.0L64.0 327.9M148.6 320.0L150.8 328.0M249.9 320.0L250.2 328.0M367.4 320.0L368.0 322.1M370.3 320.0L368.0 322.1M528.0 324.3L524.9 328.0M530.2 320.0L528.0 324.3M33.7 328.0L34.6 336.0M64.0 328.0L62.4 336.0M150.8 328.0L152.0 330.3M156.4 336.0L152.0 330.3M250.2 328.0L255.3 336.0M520.0 333.4L517.8 336.0M524.9 328.0L520.0 333.4M34.6 336.0L33.1 344.0M62.4 336.0L62.0 344.0M156.4 336.0L160.0 339.6M166.3 344.0L160.0 339.6M255.3 336.0L256.0 336.5M264.0 340.5L256.0 336.5M272.0 342.9L264.0 340.5M276.3 344.0L272.0 342.9M517.8 336.0L514.2 344.0M32.0 345.9L28.6 352.0M33.1 344.0L32.0 345.9M62.0 344.0L62.7 352.0M166.3 344.0L168.0 345.1M176.0 349.7L168.0 345.1M180.7 352.0L176.0 349.7M276.3 344.0L280.0 344.9M288.0 346.8L280.0 344.9M296.0 349.0L288.0 346.8M304.0 351.8L296.0 349.0M304.5 352.0L304.0 351.8M514.2 344.0L512.8 352.0M24.0 356.6L19.5 360.0M28.6 352.0L24.0 356.6M62.7 352.0L64.0 358.2M64.3 360.0L64.0 358.2M180.7 352.0L184.0 353.8M192.0 357.6L184.0 353.8M197.4 360.0L192.0 357.6M304.5 352.0L312.0 355.7M320.0 359.7L312.0 355.7M320.6 360.0L320.0 359.7M512.8 352.0L512.2 360.0M688.0 359.6L686.9 360.0M693.1 360.0L688.0 359.6M8.0 365.6L0.0 366.8M16.0 362.2L8.0 365.6M19.5 360.0L16.0 362.2M64.3 360.0L65.9 368.0M197.4 360.0L200.0 361.6M208.0 366.1L200.0 361.6M211.3 368.0L208.0 366.1M320.6 360.0L328.0 366.1M329.8 368.0L328.0 366.1M512.0 365.2L511.9 368.0M512.2 360.0L512.0 365.2M680.0 366.8L679.4 368.0M686.9 360.0L680.0 366.8M693.1 360.0L696.0 360.5M704.0 363.5L696.0 360.5M712.0 366.6L704.0 363.5M714.9 368.0L712.0 366.6M65.9 368.0L67.6 376.0M211.3 368.0L216.0 375.1M216.3 376.0L216.0 375.1M329.8 368.0L330.4 376.0M511.9 368.0L512.0 376.0M679.4 368.0L680.0 369.0M687.0 376.0L680.0 369.0M704.0 374.7L699.9 376.0M712.0 370.7L704.0 374.7M714.9 368.0L712.0 370.7M67.6 376.0L68.2 384.0M216.3 376.0L217.1 384.0M330.4 376.0L329.4 384.0M512.0 376.0L510.8 384.0M687.0 376.0L688.0 376.6M696.0 376.6L688.0 376.6M699.9 376.0L696.0 376.6M68.2 384.0L67.6 392.0M217.1 384.0L217.3 392.0M329.4 384.0L328.2 392.0M510.8 384.0L507.8 392.0M67.6 392.0L66.5 400.0M217.3 392.0L217.2 400.0M328.0 393.5L326.7 400.0M328.2 392.0L328.0 393.5M504.0 397.5L501.6 400.0M507.8 392.0L504.0 397.5M66.5 400.0L65.1 408.0M217.2 400.0L217.0 408.0M326.7 400.0L325.1 408.0M400.0 407.4L397.6 408.0M408.0 406.0L400.0 407.4M416.0 405.1L408.0 406.0M424.0 404.2L416.0 405.1M432.0 403.4L424.0 404.2M440.0 403.2L432.0 403.4M448.0 403.7L440.0 403.2M456.0 404.7L448.0 403.7M464.0 406.0L456.0 404.7M472.0 407.3L464.0 406.0M479.6 408.0L472.0 407.3M488.0 407.4L480.5 408.0M496.0 404.3L488.0 407.4M501.6 400.0L496.0 404.3M65.1 408.0L64.3 416.0M217.0 408.0L217.4 416.0M325.1 408.0L323.4 416.0M392.0 410.4L385.2 416.0M397.6 408.0L392.0 410.4M479.6 408.0L480.0 408.0M480.5 408.0L480.0 408.0M568.0 411.8L560.2 416.0M576.0 409.4L568.0 411.8M584.0 409.1L576.0 409.4M592.0 410.6L584.0 409.1M600.0 414.1L592.0 410.6M602.5 416.0L600.0 414.1M64.3 416.0L65.0 424.0M217.4 416.0L218.8 424.0M323.4 416.0L321.7 424.0M384.0 418.1L381.0 424.0M385.2 416.0L384.0 418.1M552.0 423.9L552.0 424.0M560.0 416.1L552.0 423.9M560.2 416.0L560.0 416.1M602.5 416.0L608.0 422.2M609.1 424.0L608.0 422.2M792.0 420.9L789.3 424.0M800.0 417.8L792.0 420.9M808.0 419.7L800.0 417.8M814.3 424.0L808.0 419.7M65.0 424.0L67.4 432.0M218.8 424.0L222.0 432.0M320.0 428.3L317.9 432.0M321.7 424.0L320.0 428.3M381.0 424.0L379.6 432.0M552.0 424.0L545.0 432.0M609.1 424.0L612.7 432.0M784.0 431.5L783.7 432.0M789.3 424.0L784.0 431.5M814.3 424.0L816.0 425.6M820.5 432.0L816.0 425.6M67.4 432.0L70.3 440.0M222.0 432.0L224.0 435.6M225.9 440.0L224.0 435.6M312.0 435.9L305.7 440.0M317.9 432.0L312.0 435.9M379.6 432.0L380.1 440.0M536.0 438.7L533.9 440.0M544.0 432.9L536.0 438.7M545.0 432.0L544.0 432.9M612.7 432.0L616.0 439.6M616.2 440.0L616.0 439.6M783.7 432.0L780.4 440.0M820.5 432.0L823.8 440.0M70.3 440.0L72.0 444.0M73.9 448.0L72.0 444.0M225.9 440.0L229.0 448.0M304.0 441.0L296.2 448.0M305.7 440.0L304.0 441.0M380.1 440.0L382.0 448.0M520.0 448.0L520.0 448.0M528.0 443.1L520.0 448.0M533.9 440.0L528.0 443.1M616.2 440.0L619.8 448.0M780.4 440.0L776.6 448.0M823.8 440.0L824.0 440.9M73.9 448.0L77.9 456.0M229.0 448.0L231.2 456.0M296.0 448.3L292.2 456.0M296.2 448.0L296.0 448.3M382.0 448.0L384.0 453.5M384.9 456.0L384.0 453.5M512.0 455.5L511.6 456.0M520.0 448.0L512.0 455.5M619.8 448.0L623.7 456.0M776.0 449.2L771.9 456.0M776.6 448.0L776.0 449.2M77.9 456.0L80.0 460.0M82.9 464.0L80.0 460.0M168.0 463.0L162.6 464.0M176.0 463.8L168.0 463.0M176.6 464.0L176.0 463.8M231.2 456.0L231.5 464.0M292.2 456.0L291.6 464.0M384.9 456.0L387.9 464.0M511.6 456.0L507.2 464.0M623.7 456.0L624.0 456.7M627.5 464.0L624.0 456.7M768.0 460.4L763.6 464.0M771.9 456.0L768.0 460.4M82.9 464.0L88.0 470.0M90.6 472.0L88.0 470.0M144.0 470.5L140.1 472.0M152.0 467.5L144.0 470.5M160.0 464.5L152.0 467.5M162.6 464.0L160.0 464.5M176.6 464.0L184.0 467.4M189.1 472.0L184.0 467.4M231.5 464.0L229.1 472.0M291.6 464.0L294.3 472.0M387.9 464.0L388.1 472.0M507.2 464.0L505.2 472.0M627.5 464.0L630.2 472.0M760.0 466.7L753.0 472.0M763.6 464.0L760.0 466.7M824.0 470.6L823.7 472.0M90.6 472.0L96.0 476.7M101.6 480.0L96.0 476.7M128.0 479.0L125.6 480.0M136.0 474.5L128.0 479.0M140.1 472.0L136.0 474.5M189.1 472.0L192.0 475.5M195.7 480.0L192.0 475.5M229.1 472.0L224.5 480.0M294.3 472.0L296.0 474.5M299.8 480.0L296.0 474.5M384.0 478.4L382.9 480.0M388.1 472.0L384.0 478.4M505.2 472.0L504.7 480.0M630.2 472.0L630.4 480.0M752.0 473.8L749.7 480.0M753.0 472.0L752.0 473.8M823.7 472.0L822.8 480.0M101.6 480.0L104.0 481.4M112.0 484.4L104.0 481.4M120.0 483.2L112.0 484.4M125.6 480.0L120.0 483.2M195.7 480.0L200.0 485.4M204.4 488.0L200.0 485.4M216.0 488.0L216.0 488.0M224.0 480.6L216.0 488.0M224.5 480.0L224.0 480.6M299.8 480.0L304.0 483.7M310.2 488.0L304.0 483.7M376.0 486.1L373.6 488.0M382.9 480.0L376.0 486.1M504.7 480.0L505.3 488.0M630.4 480.0L628.6 488.0M749.7 480.0L752.0 485.1M754.0 488.0L752.0 485.1M822.8 480.0L824.0 482.2M204.4 488.0L208.0 489.8M216.0 488.0L208.0 489.8M310.2 488.0L312.0 489.0M320.0 491.6L312.0 489.0M328.0 493.1L320.0 491.6M336.0 494.5L328.0 493.1M344.0 495.6L336.0 494.5M352.0 496.0L344.0 495.6M360.0 495.1L352.0 496.0M368.0 492.1L360.0 495.1M373.6 488.0L368.0 492.1M505.3 488.0L506.3 496.0M628.6 488.0L626.3 496.0M754.0 488.0L760.0 492.6M764.1 496.0L760.0 492.6M506.3 496.0L508.6 504.0M624.0 502.3L623.1 504.0M626.3 496.0L624.0 502.3M764.1 496.0L768.0 500.4M770.0 504.0L768.0 500.4M508.6 504.0L512.0 509.0M515.9 512.0L512.0 509.0M623.1 504.0L617.9 512.0M770.0 504.0L772.5 512.0M515.9 512.0L520.0 514.0M528.0 516.8L520.0 514.0M536.0 519.8L528.0 516.8M536.6 520.0L536.0 519.8M616.0 514.2L608.0 520.0M617.9 512.0L616.0 514.2M772.5 512.0L773.6 520.0M536.6 520.0L544.0 523.3M552.0 526.6L544.0 523.3M556.0 528.0L552.0 526.6M592.0 527.6L591.3 528.0M600.0 524.0L592.0 527.6M608.0 520.0L600.0 524.0M608.0 520.0L608.0 520.0M773.6 520.0L774.2 528.0M556.0 528.0L560.0 530.3M568.0 533.5L560.0 530.3M576.0 534.8L568.0 533.5M584.0 532.6L576.0 534.8M591.3 528.0L584.0 532.6M774.2 528.0L774.6 536.0M774.6 536.0L776.0 541.9M776.6 544.0L776.0 541.9M8.0 547.4L0.0 547.2M16.0 548.2L8.0 547.4M24.0 550.3L16.0 548.2M27.4 552.0L24.0 550.3M776.6 544.0L781.3 552.0M27.4 552.0L32.0 557.8M33.0 560.0L32.0 557.8M552.0 559.6L551.0 560.0M560.0 556.9L552.0 559.6M568.0 554.5L560.0 556.9M576.0 553.5L568.0 554.5M584.0 556.1L576.0 553.5M589.5 560.0L584.0 556.1M781.3 552.0L784.0 555.0M792.0 559.9L784.0 555.0M792.5 560.0L792.0 559.9M33.0 560.0L33.6 568.0M528.0 566.1L523.3 568.0M536.0 564.0L528.0 566.1M544.0 561.9L536.0 564.0M551.0 560.0L544.0 561.9M589.5 560.0L592.0 561.4M599.5 568.0L592.0 561.4M792.5 560.0L800.0 561.4M808.0 561.7L800.0 561.4M816.0 562.6L808.0 561.7M824.0 564.6L816.0 562.6M33.6 568.0L32.7 576.0M96.0 573.0L91.1 576.0M104.0 571.4L96.0 573.0M112.0 572.0L104.0 571.4M120.0 572.5L112.0 572.0M128.0 574.9L120.0 572.5M129.8 576.0L128.0 574.9M520.0 569.9L514.3 576.0M523.3 568.0L520.0 569.9M599.5 568.0L600.0 568.5M604.6 576.0L600.0 568.5M32.0 581.1L31.6 584.0M32.7 576.0L32.0 581.1M88.0 579.9L85.9 584.0M91.1 576.0L88.0 579.9M129.8 576.0L136.0 583.5M136.3 584.0L136.0 583.5M512.0 582.2L511.5 584.0M514.3 576.0L512.0 582.2M604.6 576.0L606.5 584.0M31.6 584.0L31.6 592.0M85.9 584.0L84.7 592.0M136.3 584.0L138.3 592.0M511.5 584.0L511.4 592.0M606.5 584.0L606.1 592.0M31.6 592.0L32.0 593.0M36.0 600.0L32.0 593.0M84.7 592.0L82.9 600.0M138.3 592.0L139.2 600.0M511.4 592.0L512.0 593.5M517.2 600.0L512.0 593.5M606.1 592.0L604.1 600.0M36.0 600.0L40.0 602.8M48.0 606.4L40.0 602.8M53.1 608.0L48.0 606.4M80.0 604.8L75.0 608.0M82.9 600.0L80.0 604.8M139.2 600.0L139.8 608.0M517.2 600.0L520.0 601.1M528.0 602.7L520.0 601.1M536.0 603.3L528.0 602.7M544.0 604.4L536.0 603.3M552.0 606.6L544.0 604.4M555.7 608.0L552.0 606.6M604.1 600.0L601.2 608.0M53.1 608.0L56.0 608.7M64.0 609.5L56.0 608.7M72.0 608.9L64.0 609.5M75.0 608.0L72.0 608.9M139.8 608.0L141.3 616.0M472.0 615.1L470.9 616.0M480.0 612.8L472.0 615.1M488.0 613.8L480.0 612.8M492.5 616.0L488.0 613.8M555.7 608.0L560.0 609.8M568.0 614.9L560.0 609.8M569.6 616.0L568.0 614.9M600.0 611.0L597.2 616.0M601.2 608.0L600.0 611.0M824.0 613.6L818.1 616.0M104.0 622.6L101.5 624.0M112.0 621.9L104.0 622.6M119.5 624.0L112.0 621.9M141.3 616.0L144.0 619.2M149.7 624.0L144.0 619.2M464.0 621.9L462.4 624.0M470.9 616.0L464.0 621.9M492.5 616.0L496.0 619.1M498.3 624.0L496.0 619.1M569.6 616.0L576.0 622.5M578.4 624.0L576.0 622.5M597.2 616.0L592.6 624.0M776.0 623.2L773.8 624.0M784.0 620.9L776.0 623.2M792.0 619.3L784.0 620.9M800.0 618.7L792.0 619.3M808.0 618.2L800.0 618.7M816.0 616.7L808.0 618.2M818.1 616.0L816.0 616.7M101.5 624.0L97.5 632.0M119.5 624.0L120.0 624.4M125.0 632.0L120.0 624.4M149.7 624.0L152.0 624.9M160.0 629.9L152.0 624.9M162.8 632.0L160.0 629.9M462.4 624.0L457.6 632.0M498.3 624.0L500.1 632.0M578.4 624.0L584.0 629.3M592.0 625.1L584.0 629.3M592.6 624.0L592.0 625.1M760.0 630.5L756.4 632.0M768.0 626.7L760.0 630.5M773.8 624.0L768.0 626.7M97.5 632.0L100.2 640.0M120.0 638.7L119.0 640.0M125.0 632.0L120.0 638.7M162.8 632.0L168.0 635.0M176.0 638.6L168.0 635.0M180.3 640.0L176.0 638.6M368.0 638.3L362.7 640.0M376.0 637.5L368.0 638.3M383.8 640.0L376.0 637.5M456.0 635.5L454.2 640.0M457.6 632.0L456.0 635.5M500.1 632.0L501.4 640.0M752.0 635.8L745.3 640.0M756.4 632.0L752.0 635.8M6.5 648.0L0.0 643.8M100.2 640.0L104.0 642.9M112.0 642.8L104.0 642.9M119.0 640.0L112.0 642.8M180.3 640.0L184.0 641.5M192.0 644.0L184.0 641.5M200.0 645.7L192.0 644.0M208.0 647.1L200.0 645.7M212.8 648.0L208.0 647.1M352.0 644.7L345.2 648.0M360.0 640.9L352.0 644.7M362.7 640.0L360.0 640.9M383.8 640.0L384.0 640.1M392.0 646.2L384.0 640.1M393.9 648.0L392.0 646.2M454.2 640.0L451.5 648.0M501.4 640.0L501.8 648.0M744.0 641.7L739.2 648.0M745.3 640.0L744.0 641.7M6.5 648.0L8.0 648.9M12.8 656.0L8.0 648.9M212.8 648.0L216.0 648.8M224.0 654.8L216.0 648.8M225.0 656.0L224.0 654.8M328.0 654.8L322.3 656.0M336.0 652.0L328.0 654.8M344.0 648.6L336.0 652.0M345.2 648.0L344.0 648.6M393.9 648.0L400.0 653.3M403.5 656.0L400.0 653.3M448.0 655.4L447.6 656.0M451.5 648.0L448.0 655.4M501.8 648.0L500.8 656.0M728.0 655.9L727.7 656.0M736.0 650.6L728.0 655.9M739.2 648.0L736.0 650.6M12.8 656.0L16.0 660.2M18.4 664.0L16.0 660.2M225.0 656.0L231.2 664.0M304.0 661.2L298.4 664.0M312.0 658.3L304.0 661.2M320.0 656.5L312.0 658.3M322.3 656.0L320.0 656.5M403.5 656.0L408.0 659.2M416.0 663.1L408.0 659.2M419.5 664.0L416.0 663.1M440.0 663.0L436.9 664.0M447.6 656.0L440.0 663.0M500.8 656.0L498.6 664.0M688.0 662.9L685.6 664.0M696.0 661.9L688.0 662.9M704.0 661.5L696.0 661.9M712.0 660.5L704.0 661.5M720.0 658.8L712.0 660.5M727.7 656.0L720.0 658.8M776.0 663.2L774.4 664.0M784.0 660.6L776.0 663.2M792.0 659.5L784.0 660.6M800.0 659.2L792.0 659.5M808.0 659.6L800.0 659.2M816.0 661.0L808.0 659.6M823.7 664.0L816.0 661.0M18.4 664.0L24.0 672.0M24.0 672.0L24.0 672.0M231.2 664.0L232.0 665.2M236.5 672.0L232.0 665.2M288.0 670.8L286.2 672.0M296.0 665.4L288.0 670.8M298.4 664.0L296.0 665.4M419.5 664.0L424.0 665.2M432.0 665.4L424.0 665.2M436.9 664.0L432.0 665.4M496.0 670.7L495.3 672.0M498.6 664.0L496.0 670.7M680.0 667.3L676.0 672.0M685.6 664.0L680.0 667.3M768.0 669.9L766.6 672.0M774.4 664.0L768.0 669.9M823.7 664.0L824.0 664.2M24.0 672.0L29.6 680.0M160.0 676.4L155.3 680.0M168.0 676.3L160.0 676.4M175.2 680.0L168.0 676.3M236.5 672.0L240.0 678.7M241.0 680.0L240.0 678.7M280.0 678.3L278.0 680.0M286.2 672.0L280.0 678.3M495.3 672.0L490.6 680.0M676.0 672.0L672.1 680.0M766.6 672.0L763.9 680.0M29.6 680.0L32.0 684.6M34.1 688.0L32.0 684.6M152.0 683.4L150.2 688.0M155.3 680.0L152.0 683.4M175.2 680.0L176.0 680.5M182.1 688.0L176.0 680.5M241.0 680.0L242.7 688.0M278.0 680.0L274.2 688.0M488.0 685.2L485.6 688.0M490.6 680.0L488.0 685.2M672.0 680.5L670.8 688.0M672.1 680.0L672.0 680.5M763.9 680.0L762.7 688.0M34.1 688.0L36.6 696.0M150.2 688.0L148.4 696.0M182.1 688.0L184.0 693.2M184.9 696.0L184.0 693.2M242.7 688.0L241.9 696.0M274.2 688.0L274.4 696.0M485.6 688.0L485.1 696.0M670.8 688.0L670.9 696.0M762.7 688.0L761.5 696.0M36.6 696.0L40.0 699.2M47.3 704.0L40.0 699.2M148.4 696.0L145.4 704.0M184.9 696.0L190.7 704.0M240.0 699.0L236.6 704.0M241.9 696.0L240.0 699.0M274.4 696.0L275.8 704.0M485.1 696.0L488.0 699.5M490.6 704.0L488.0 699.5M670.9 696.0L671.7 704.0M760.0 698.9L755.8 704.0M761.5 696.0L760.0 698.9M47.3 704.0L48.0 704.2M56.0 705.9L48.0 704.2M64.0 709.4L56.0 705.9M68.0 712.0L64.0 709.4M144.0 706.2L140.6 712.0M145.4 704.0L144.0 706.2M190.7 704.0L192.0 704.9M200.0 709.1L192.0 704.9M208.0 711.1L200.0 709.1M216.0 711.3L208.0 711.1M224.0 710.0L216.0 711.3M232.0 706.8L224.0 710.0M236.6 704.0L232.0 706.8M275.8 704.0L278.9 712.0M490.6 704.0L496.0 709.0M499.0 712.0L496.0 709.0M671.7 704.0L672.0 705.6M673.4 712.0L672.0 705.6M736.0 710.4L732.9 712.0M744.0 708.1L736.0 710.4M752.0 706.6L744.0 708.1M755.8 704.0L752.0 706.6M68.0 712.0L72.0 714.1M80.0 718.8L72.0 714.1M82.1 720.0L80.0 718.8M136.0 716.7L132.1 720.0M140.6 712.0L136.0 716.7M278.9 712.0L280.0 713.5M288.0 719.6L280.0 713.5M289.2 720.0L288.0 719.6M499.0 712.0L504.0 715.7M510.3 720.0L504.0 715.7M673.4 712.0L675.7 720.0M728.0 714.3L720.0 720.0M732.9 712.0L728.0 714.3M82.1 720.0L88.0 723.1M96.0 726.5L88.0 723.1M102.7 728.0L96.0 726.5M120.0 726.1L112.1 728.0M128.0 722.6L120.0 726.1M132.1 720.0L128.0 722.6M289.2 720.0L296.0 721.4M304.0 722.3L296.0 721.4M312.0 723.0L304.0 722.3M320.0 723.8L312.0 723.0M328.0 724.7L320.0 723.8M336.0 725.7L328.0 724.7M344.0 726.5L336.0 725.7M352.0 727.3L344.0 726.5M360.0 728.0L352.0 727.3M360.4 728.0L360.0 728.0M510.3 720.0L512.0 721.1M520.0 725.5L512.0 721.1M525.5 728.0L520.0 725.5M675.7 720.0L678.5 728.0M712.0 727.7L711.6 728.0M720.0 720.0L712.0 727.7M720.0 720.0L720.0 720.0M102.7 728.0L104.0 728.3M112.0 728.0L104.0 728.3M112.1 728.0L112.0 728.0M360.4 728.0L368.0 728.6M376.0 729.3L368.0 728.6M384.0 734.0L376.0 729.3M385.5 736.0L384.0 734.0M525.5 728.0L528.0 729.4M536.0 733.6L528.0 729.4M538.6 736.0L536.0 733.6M678.5 728.0L680.0 732.1M682.5 736.0L680.0 732.1M711.6 728.0L705.0 736.0M385.5 736.0L388.7 744.0M538.6 736.0L542.7 744.0M682.5 736.0L686.8 744.0M704.0 737.8L698.6 744.0M705.0 736.0L704.0 737.8M388.7 744.0L389.1 752.0M542.7 744.0L543.2 752.0M686.8 744.0L688.0 746.5M696.0 747.9L688.0 746.5M698.6 744.0L696.0 747.9M389.1 752.0L386.2 760.0M543.2 752.0L543.6 760.0M264.0 766.8L259.9 768.0M272.0 767.0L264.0 766.8M273.8 768.0L272.0 767.0M384.0 762.8L376.5 768.0M386.2 760.0L384.0 762.8M543.6 760.0L544.0 767.0M544.0 768.0L544.0 767.0M240.0 774.2L233.7 776.0M248.0 771.6L240.0 774.2M256.0 768.9L248.0 771.6M259.9 768.0L256.0 768.9M273.8 768.0L280.0 771.4M284.2 776.0L280.0 771.4M360.0 775.2L359.0 776.0M368.0 770.8L360.0 775.2M376.0 768.3L368.0 770.8M376.5 768.0L376.0 768.3M544.0 768.0L544.4 776.0M208.0 782.2L205.2 784.0M216.0 780.0L208.0 782.2M224.0 778.3L216.0 780.0M232.0 776.5L224.0 778.3M233.7 776.0L232.0 776.5M284.2 776.0L288.0 781.1M289.6 784.0L288.0 781.1M352.0 783.2L351.4 784.0M359.0 776.0L352.0 783.2M544.4 776.0L544.7 784.0M8.0 789.0L0.0 787.9M15.5 792.0L8.0 789.0M200.0 789.0L198.1 792.0M205.2 784.0L200.0 789.0M289.6 784.0L292.5 792.0M351.4 784.0L347.5 792.0M544.7 784.0L544.9 792.0M15.5 792.0L16.0 792.5M20.8 800.0L16.0 792.5M198.1 792.0L196.3 800.0M292.5 792.0L293.5 800.0M347.5 792.0L346.2 800.0M544.9 792.0L545.0 800.0M20.8 800.0L16.5 808.0M196.3 800.0L196.2 808.0M293.5 800.0L292.3 808.0M346.2 800.0L346.7 808.0M544.0 804.7L543.1 808.0M545.0 800.0L544.0 804.7M8.0 811.3L0.0 812.2M16.0 808.3L8.0 811.3M16.5 808.0L16.0 808.3M196.2 808.0L195.9 816.0M292.3 808.0L288.5 816.0M346.7 808.0L348.1 816.0M543.1 808.0L536.1 816.0M195.9 816.0L195.8 824.0M280.0 822.8L276.2 824.0M288.0 816.6L280.0 822.8M288.5 816.0L288.0 816.6M348.1 816.0L350.5 824.0M520.0 823.0L517.2 824.0M528.0 819.9L520.0 823.0M536.0 816.1L528.0 819.9M536.1 816.0L536.0 816.1M266.8 0.0L272.0 4.5M280.0 2.9L272.0 4.5M282.3 0.0L280.0 2.9M511.3 0.0L510.9 8.0M733.6 0.0L731.0 8.0M510.9 8.0L509.7 16.0M728.0 11.7L724.7 16.0M731.0 8.0L728.0 11.7M509.7 16.0L507.4 24.0M720.0 20.5L716.4 24.0M724.7 16.0L720.0 20.5M320.0 31.3L319.1 32.0M328.0 27.1L320.0 31.3M336.0 24.8L328.0 27.1M344.0 24.7L336.0 24.8M352.0 27.6L344.0 24.7M358.3 32.0L352.0 27.6M504.0 30.4L502.7 32.0M507.4 24.0L504.0 30.4M712.0 27.7L706.1 32.0M716.4 24.0L712.0 27.7M319.1 32.0L313.9 40.0M358.3 32.0L360.0 33.7M365.9 40.0L360.0 33.7M496.0 38.0L492.1 40.0M502.7 32.0L496.0 38.0M664.0 39.5L661.8 40.0M672.0 38.2L664.0 39.5M680.0 37.7L672.0 38.2M688.0 37.7L680.0 37.7M696.0 37.0L688.0 37.7M704.0 33.5L696.0 37.0M706.1 32.0L704.0 33.5M8.0 45.0L0.0 44.1M16.0 47.9L8.0 45.0M16.2 48.0L16.0 47.9M313.9 40.0L313.0 48.0M365.9 40.0L368.0 45.1M370.1 48.0L368.0 45.1M480.0 45.4L474.0 48.0M488.0 42.1L480.0 45.4M492.1 40.0L488.0 42.1M640.0 47.0L638.4 48.0M648.0 43.9L640.0 47.0M656.0 41.4L648.0 43.9M661.8 40.0L656.0 41.4M16.2 48.0L24.0 53.7M26.3 56.0L24.0 53.7M313.0 48.0L316.0 56.0M360.0 55.8L359.8 56.0M368.0 49.8L360.0 55.8M370.1 48.0L368.0 49.8M464.0 55.0L462.6 56.0M472.0 49.3L464.0 55.0M474.0 48.0L472.0 49.3M632.0 53.2L629.7 56.0M638.4 48.0L632.0 53.2M26.3 56.0L32.0 61.0M34.9 64.0L32.0 61.0M316.0 56.0L319.4 64.0M344.0 62.6L341.4 64.0M352.0 58.6L344.0 62.6M359.8 56.0L352.0 58.6M456.0 60.1L449.0 64.0M462.6 56.0L456.0 60.1M624.0 63.0L623.3 64.0M629.7 56.0L624.0 63.0M34.9 64.0L40.0 68.9M43.1 72.0L40.0 68.9M319.4 64.0L320.0 66.0M328.0 70.8L320.0 66.0M336.0 67.4L328.0 70.8M341.4 64.0L336.0 67.4M424.0 71.3L419.6 72.0M432.0 70.0L424.0 71.3M440.0 67.6L432.0 70.0M448.0 64.5L440.0 67.6M449.0 64.0L448.0 64.5M623.3 64.0L616.5 72.0M43.1 72.0L48.0 77.2M50.7 80.0L48.0 77.2M408.0 75.5L403.4 80.0M416.0 72.7L408.0 75.5M419.6 72.0L416.0 72.7M520.0 79.3L519.4 80.0M528.0 74.7L520.0 79.3M536.0 74.7L528.0 74.7M544.0 76.8L536.0 74.7M552.0 79.8L544.0 76.8M552.6 80.0L552.0 79.8M608.0 79.5L607.1 80.0M616.0 72.5L608.0 79.5M616.5 72.0L616.0 72.5M50.7 80.0L56.0 86.6M56.9 88.0L56.0 86.6M403.4 80.0L400.4 88.0M519.4 80.0L515.1 88.0M552.6 80.0L560.0 83.0M568.0 85.9L560.0 83.0M575.7 88.0L568.0 85.9M592.0 87.2L587.3 88.0M600.0 84.3L592.0 87.2M607.1 80.0L600.0 84.3M56.9 88.0L60.4 96.0M400.0 90.1L399.2 96.0M400.4 88.0L400.0 90.1M515.1 88.0L513.1 96.0M575.7 88.0L576.0 88.1M584.0 88.7L576.0 88.1M587.3 88.0L584.0 88.7M60.4 96.0L62.0 104.0M399.2 96.0L398.7 104.0M513.1 96.0L512.2 104.0M62.0 104.0L61.7 112.0M398.7 104.0L398.6 112.0M512.2 104.0L512.5 112.0M61.7 112.0L59.1 120.0M398.6 112.0L398.4 120.0M512.5 112.0L514.4 120.0M56.0 125.7L54.5 128.0M59.1 120.0L56.0 125.7M398.4 120.0L397.4 128.0M514.4 120.0L518.5 128.0M48.0 135.6L47.7 136.0M54.5 128.0L48.0 135.6M397.4 128.0L394.8 136.0M518.5 128.0L520.0 130.1M526.3 136.0L520.0 130.1M47.7 136.0L40.0 144.0M392.0 140.9L389.5 144.0M394.8 136.0L392.0 140.9M526.3 136.0L528.0 137.4M536.0 141.1L528.0 137.4M541.1 144.0L536.0 141.1M32.0 151.7L31.6 152.0M40.0 144.1L32.0 151.7M40.0 144.0L40.0 144.1M384.0 149.0L378.8 152.0M389.5 144.0L384.0 149.0M541.1 144.0L544.0 146.2M549.0 152.0L544.0 146.2M24.0 158.7L22.1 160.0M31.6 152.0L24.0 158.7M320.0 155.9L316.3 160.0M328.0 153.0L320.0 155.9M336.0 153.1L328.0 153.0M344.0 155.3L336.0 153.1M352.0 157.1L344.0 155.3M360.0 157.5L352.0 157.1M368.0 156.5L360.0 157.5M376.0 153.6L368.0 156.5M378.8 152.0L376.0 153.6M549.0 152.0L552.0 158.1M552.8 160.0L552.0 158.1M792.0 159.3L791.3 160.0M800.0 155.9L792.0 159.3M807.7 160.0L800.0 155.9M16.0 164.7L8.5 168.0M22.1 160.0L16.0 164.7M312.0 163.7L309.2 168.0M316.3 160.0L312.0 163.7M552.8 160.0L554.4 168.0M791.3 160.0L787.0 168.0M807.7 160.0L808.0 160.3M811.1 168.0L808.0 160.3M8.0 168.2L0.0 169.6M8.5 168.0L8.0 168.2M304.0 175.3L303.6 176.0M309.2 168.0L304.0 175.3M554.4 168.0L554.9 176.0M787.0 168.0L790.8 176.0M811.1 168.0L808.3 176.0M128.0 183.7L126.5 184.0M136.0 182.0L128.0 183.7M144.0 180.8L136.0 182.0M152.0 181.5L144.0 180.8M156.1 184.0L152.0 181.5M303.6 176.0L299.1 184.0M554.9 176.0L553.7 184.0M688.0 182.9L686.2 184.0M696.0 181.7L688.0 182.9M704.0 184.0L696.0 181.7M704.1 184.0L704.0 184.0M790.8 176.0L792.0 176.9M800.0 178.8L792.0 176.9M808.0 176.2L800.0 178.8M808.3 176.0L808.0 176.2M88.0 190.6L84.2 192.0M96.0 188.6L88.0 190.6M104.0 187.4L96.0 188.6M112.0 186.7L104.0 187.4M120.0 185.3L112.0 186.7M126.5 184.0L120.0 185.3M156.1 184.0L160.0 187.5M162.3 192.0L160.0 187.5M296.0 190.2L295.2 192.0M299.1 184.0L296.0 190.2M544.0 191.5L543.1 192.0M552.0 186.5L544.0 191.5M553.7 184.0L552.0 186.5M568.0 191.9L567.6 192.0M576.0 190.0L568.0 191.9M584.0 190.0L576.0 190.0M592.0 190.8L584.0 190.0M600.0 191.7L592.0 190.8M602.4 192.0L600.0 191.7M672.0 191.9L671.8 192.0M680.0 187.4L672.0 191.9M686.2 184.0L680.0 187.4M704.1 184.0L712.0 189.5M714.4 192.0L712.0 189.5M72.0 198.8L70.5 200.0M80.0 193.9L72.0 198.8M84.2 192.0L80.0 193.9M162.3 192.0L165.7 200.0M295.2 192.0L292.1 200.0M536.0 195.6L530.5 200.0M543.1 192.0L536.0 195.6M567.6 192.0L560.1 200.0M602.4 192.0L608.0 192.8M616.0 193.9L608.0 192.8M624.0 195.1L616.0 193.9M632.0 196.4L624.0 195.1M640.0 197.8L632.0 196.4M648.0 198.5L640.0 197.8M656.0 197.7L648.0 198.5M664.0 195.5L656.0 197.7M671.8 192.0L664.0 195.5M714.4 192.0L720.0 199.6M720.2 200.0L720.0 199.6M70.5 200.0L64.6 208.0M165.7 200.0L168.0 206.4M168.4 208.0L168.0 206.4M292.1 200.0L289.8 208.0M528.0 203.6L525.3 208.0M530.5 200.0L528.0 203.6M560.0 200.4L558.3 208.0M560.1 200.0L560.0 200.4M720.2 200.0L724.4 208.0M64.0 211.5L63.3 216.0M64.6 208.0L64.0 211.5M168.4 208.0L170.5 216.0M289.8 208.0L288.6 216.0M525.3 208.0L526.5 216.0M558.3 208.0L556.2 216.0M724.4 208.0L727.9 216.0M63.3 216.0L63.0 224.0M170.5 216.0L173.1 224.0M288.6 216.0L288.5 224.0M526.5 216.0L528.0 218.1M532.8 224.0L528.0 218.1M552.0 222.7L550.5 224.0M556.2 216.0L552.0 222.7M727.9 216.0L728.0 216.2M733.3 224.0L728.0 216.2M63.0 224.0L62.7 232.0M173.1 224.0L176.0 231.3M176.3 232.0L176.0 231.3M288.5 224.0L289.3 232.0M532.8 224.0L536.0 226.8M544.0 228.0L536.0 226.8M550.5 224.0L544.0 228.0M733.3 224.0L736.0 226.2M744.0 228.5L736.0 226.2M752.0 228.9L744.0 228.5M760.0 229.3L752.0 228.9M768.0 229.9L760.0 229.3M776.0 230.4L768.0 229.9M784.0 230.8L776.0 230.4M792.0 231.1L784.0 230.8M800.0 231.2L792.0 231.1M808.0 230.8L800.0 231.2M816.0 229.6L808.0 230.8M824.0 227.6L816.0 229.6M62.7 232.0L61.3 240.0M176.3 232.0L180.8 240.0M289.3 232.0L290.3 240.0M640.0 238.8L637.0 240.0M648.0 237.8L640.0 238.8M656.0 237.3L648.0 237.8M664.0 237.3L656.0 237.3M672.0 237.6L664.0 237.3M680.0 238.0L672.0 237.6M688.0 238.4L680.0 238.0M696.0 238.5L688.0 238.4M704.0 239.2L696.0 238.5M707.7 240.0L704.0 239.2M61.3 240.0L58.3 248.0M180.8 240.0L184.0 244.4M187.1 248.0L184.0 244.4M290.3 240.0L291.4 248.0M632.0 241.9L625.2 248.0M637.0 240.0L632.0 241.9M707.7 240.0L712.0 241.5M718.2 248.0L712.0 241.5M56.0 252.0L54.2 256.0M58.3 248.0L56.0 252.0M187.1 248.0L192.0 253.5M194.8 256.0L192.0 253.5M291.4 248.0L292.2 256.0M624.0 249.4L620.4 256.0M625.2 248.0L624.0 249.4M718.2 248.0L720.0 253.5M720.6 256.0L720.0 253.5M54.2 256.0L50.1 264.0M194.8 256.0L200.0 261.8M202.7 264.0L200.0 261.8M292.2 256.0L292.2 264.0M620.4 256.0L617.1 264.0M720.6 256.0L721.6 264.0M48.0 268.2L46.4 272.0M50.1 264.0L48.0 268.2M202.7 264.0L206.5 272.0M292.2 264.0L290.7 272.0M616.0 266.9L614.0 272.0M617.1 264.0L616.0 266.9M721.6 264.0L722.7 272.0M46.4 272.0L44.2 280.0M206.5 272.0L204.3 280.0M288.0 276.5L285.5 280.0M290.7 272.0L288.0 276.5M614.0 272.0L608.3 280.0M722.7 272.0L725.6 280.0M776.0 280.0L775.9 280.0M784.0 279.1L776.0 280.0M792.0 278.7L784.0 279.1M800.0 278.6L792.0 278.7M808.0 278.7L800.0 278.6M816.0 279.0L808.0 278.7M824.0 279.9L816.0 279.0M44.2 280.0L42.1 288.0M200.0 285.1L197.7 288.0M204.3 280.0L200.0 285.1M280.0 284.5L274.3 288.0M285.5 280.0L280.0 284.5M552.0 286.7L551.0 288.0M560.0 284.5L552.0 286.7M568.0 285.3L560.0 284.5M576.0 286.8L568.0 285.3M584.0 287.7L576.0 286.8M592.0 287.9L584.0 287.7M600.0 285.6L592.0 287.9M608.0 280.3L600.0 285.6M608.3 280.0L608.0 280.3M725.6 280.0L728.0 283.8M732.8 288.0L728.0 283.8M752.0 286.7L748.9 288.0M760.0 283.3L752.0 286.7M768.0 281.2L760.0 283.3M775.9 280.0L768.0 281.2M8.0 294.4L0.0 294.2M16.0 294.7L8.0 294.4M24.0 295.1L16.0 294.7M32.0 295.4L24.0 295.1M40.0 292.6L32.0 295.4M42.1 288.0L40.0 292.6M192.0 293.0L188.4 296.0M197.7 288.0L192.0 293.0M256.0 295.3L254.4 296.0M264.0 292.3L256.0 295.3M272.0 289.1L264.0 292.3M274.3 288.0L272.0 289.1M551.0 288.0L548.3 296.0M732.8 288.0L736.0 290.0M744.0 290.3L736.0 290.0M748.9 288.0L744.0 290.3M184.0 299.5L177.9 304.0M188.4 296.0L184.0 299.5M248.0 299.9L243.8 304.0M254.4 296.0L248.0 299.9M548.3 296.0L547.3 304.0M176.0 305.8L169.8 312.0M177.9 304.0L176.0 305.8M240.0 311.5L239.8 312.0M243.8 304.0L240.0 311.5M547.3 304.0L546.3 312.0M169.8 312.0L168.2 320.0M239.8 312.0L237.6 320.0M546.3 312.0L544.7 320.0M168.2 320.0L174.9 328.0M237.6 320.0L236.4 328.0M544.0 321.8L541.4 328.0M544.7 320.0L544.0 321.8M174.9 328.0L176.0 328.8M184.0 333.4L176.0 328.8M189.3 336.0L184.0 333.4M236.4 328.0L235.8 336.0M541.4 328.0L536.5 336.0M189.3 336.0L192.0 337.2M200.0 340.3L192.0 337.2M208.0 343.3L200.0 340.3M209.9 344.0L208.0 343.3M235.8 336.0L236.9 344.0M536.0 336.8L530.2 344.0M536.5 336.0L536.0 336.8M680.0 343.3L677.1 344.0M688.0 342.9L680.0 343.3M696.0 343.7L688.0 342.9M700.6 344.0L696.0 343.7M209.9 344.0L216.0 346.2M224.0 348.4L216.0 346.2M231.8 352.0L224.0 348.4M236.9 344.0L240.0 346.9M248.0 349.2L240.0 346.9M256.0 350.5L248.0 349.2M263.5 352.0L256.0 350.5M528.0 347.2L525.2 352.0M530.2 344.0L528.0 347.2M664.0 350.3L662.1 352.0M672.0 345.5L664.0 350.3M677.1 344.0L672.0 345.5M700.6 344.0L704.0 344.3M712.0 344.6L704.0 344.3M720.0 345.1L712.0 344.6M728.0 346.5L720.0 345.1M736.0 349.4L728.0 346.5M740.1 352.0L736.0 349.4M231.8 352.0L232.0 352.2M234.4 360.0L232.0 352.2M263.5 352.0L264.0 352.1M272.0 354.8L264.0 352.1M280.0 357.9L272.0 354.8M284.8 360.0L280.0 357.9M525.2 352.0L522.6 360.0M662.1 352.0L657.1 360.0M740.1 352.0L744.0 354.7M750.0 360.0L744.0 354.7M234.4 360.0L235.3 368.0M284.8 360.0L288.0 362.6M293.8 368.0L288.0 362.6M522.6 360.0L521.7 368.0M656.0 365.2L655.4 368.0M657.1 360.0L656.0 365.2M750.0 360.0L752.0 362.1M756.9 368.0L752.0 362.1M40.0 375.7L38.9 376.0M41.4 376.0L40.0 375.7M235.3 368.0L236.2 376.0M293.8 368.0L294.6 376.0M521.7 368.0L522.7 376.0M655.4 368.0L656.0 370.4M657.5 376.0L656.0 370.4M756.9 368.0L760.0 373.6M761.4 376.0L760.0 373.6M16.0 384.0L15.9 384.0M24.0 381.3L16.0 384.0M32.0 378.0L24.0 381.3M38.9 376.0L32.0 378.0M41.4 376.0L48.0 379.7M49.5 384.0L48.0 379.7M236.2 376.0L237.7 384.0M294.6 376.0L292.0 384.0M522.7 376.0L523.4 384.0M657.5 376.0L663.3 384.0M761.4 376.0L760.5 384.0M8.0 385.5L0.0 386.0M15.9 384.0L8.0 385.5M49.5 384.0L49.4 392.0M237.7 384.0L239.9 392.0M288.0 390.8L287.1 392.0M292.0 384.0L288.0 390.8M523.4 384.0L523.0 392.0M663.3 384.0L664.0 384.7M672.0 391.9L664.0 384.7M672.1 392.0L672.0 391.9M736.0 391.1L731.9 392.0M744.0 389.8L736.0 391.1M752.0 388.5L744.0 389.8M760.0 384.5L752.0 388.5M760.5 384.0L760.0 384.5M49.4 392.0L48.3 400.0M239.9 392.0L240.0 392.3M243.8 400.0L240.0 392.3M280.0 398.9L278.7 400.0M287.1 392.0L280.0 398.9M523.0 392.0L521.2 400.0M576.0 399.3L570.2 400.0M584.0 399.2L576.0 399.3M592.0 399.9L584.0 399.2M592.6 400.0L592.0 399.9M672.1 392.0L680.0 397.6M684.6 400.0L680.0 397.6M712.0 397.6L705.9 400.0M720.0 394.8L712.0 397.6M728.0 392.7L720.0 394.8M731.9 392.0L728.0 392.7M48.0 402.5L47.4 408.0M48.3 400.0L48.0 402.5M243.8 400.0L248.0 406.0M251.2 408.0L248.0 406.0M272.0 404.7L266.6 408.0M278.7 400.0L272.0 404.7M520.0 402.9L517.7 408.0M521.2 400.0L520.0 402.9M552.0 404.7L545.9 408.0M560.0 402.0L552.0 404.7M568.0 400.3L560.0 402.0M570.2 400.0L568.0 400.3M592.6 400.0L600.0 401.2M608.0 403.8L600.0 401.2M614.2 408.0L608.0 403.8M684.6 400.0L688.0 401.9M696.0 403.0L688.0 401.9M704.0 400.9L696.0 403.0M705.9 400.0L704.0 400.9M784.0 404.0L780.6 408.0M792.0 400.8L784.0 404.0M800.0 400.1L792.0 400.8M808.0 401.5L800.0 400.1M816.0 405.1L808.0 401.5M820.3 408.0L816.0 405.1M47.4 408.0L47.6 416.0M251.2 408.0L256.0 410.8M264.0 409.8L256.0 410.8M266.6 408.0L264.0 409.8M416.0 414.8L412.5 416.0M424.0 412.7L416.0 414.8M432.0 411.4L424.0 412.7M440.0 411.3L432.0 411.4M448.0 412.1L440.0 411.3M456.0 413.6L448.0 412.1M464.0 415.7L456.0 413.6M465.0 416.0L464.0 415.7M512.0 415.1L510.8 416.0M517.7 408.0L512.0 415.1M544.0 409.5L537.5 416.0M545.9 408.0L544.0 409.5M614.2 408.0L616.0 410.0M619.5 416.0L616.0 410.0M780.6 408.0L777.1 416.0M820.3 408.0L824.0 410.9M47.6 416.0L48.0 418.0M49.2 424.0L48.0 418.0M408.0 418.8L402.2 424.0M412.5 416.0L408.0 418.8M465.0 416.0L472.0 418.7M480.0 421.6L472.0 418.7M488.0 423.2L480.0 421.6M496.0 423.2L488.0 423.2M504.0 421.1L496.0 423.2M510.8 416.0L504.0 421.1M536.0 417.9L530.0 424.0M537.5 416.0L536.0 417.9M619.5 416.0L622.2 424.0M776.0 418.8L774.5 424.0M777.1 416.0L776.0 418.8M49.2 424.0L52.2 432.0M400.0 429.9L399.3 432.0M402.2 424.0L400.0 429.9M520.0 430.3L516.9 432.0M528.0 425.6L520.0 430.3M530.0 424.0L528.0 425.6M622.2 424.0L624.0 430.1M624.5 432.0L624.0 430.1M774.5 424.0L771.3 432.0M52.2 432.0L55.2 440.0M399.3 432.0L399.5 440.0M512.0 433.8L504.3 440.0M516.9 432.0L512.0 433.8M624.5 432.0L628.0 440.0M768.0 438.3L767.0 440.0M771.3 432.0L768.0 438.3M55.2 440.0L56.0 442.3M58.0 448.0L56.0 442.3M399.5 440.0L400.0 441.6M402.1 448.0L400.0 441.6M504.0 440.3L499.7 448.0M504.3 440.0L504.0 440.3M628.0 440.0L632.0 447.7M632.2 448.0L632.0 447.7M767.0 440.0L760.7 448.0M58.0 448.0L60.3 456.0M402.1 448.0L407.1 456.0M499.7 448.0L497.1 456.0M632.2 448.0L637.1 456.0M752.0 455.3L751.1 456.0M760.0 448.8L752.0 455.3M760.7 448.0L760.0 448.8M60.3 456.0L62.0 464.0M407.1 456.0L408.0 457.1M414.3 464.0L408.0 457.1M496.0 461.0L495.4 464.0M497.1 456.0L496.0 461.0M637.1 456.0L640.0 461.0M641.8 464.0L640.0 461.0M744.0 461.4L740.8 464.0M751.1 456.0L744.0 461.4M62.0 464.0L63.1 472.0M256.0 471.0L255.1 472.0M264.0 469.6L256.0 471.0M266.9 472.0L264.0 469.6M414.3 464.0L416.0 466.5M420.4 472.0L416.0 466.5M495.4 464.0L494.4 472.0M641.8 464.0L644.8 472.0M736.0 470.2L734.9 472.0M740.8 464.0L736.0 470.2M63.1 472.0L63.1 480.0M248.0 478.5L247.0 480.0M255.1 472.0L248.0 478.5M266.9 472.0L272.0 475.3M276.4 480.0L272.0 475.3M420.4 472.0L422.5 480.0M494.4 472.0L494.1 480.0M644.8 472.0L645.4 480.0M734.9 472.0L733.2 480.0M63.1 480.0L62.3 488.0M168.0 485.2L164.5 488.0M170.3 488.0L168.0 485.2M247.0 480.0L240.1 488.0M276.4 480.0L280.0 482.8M285.5 488.0L280.0 482.8M422.5 480.0L418.0 488.0M494.1 480.0L493.6 488.0M645.4 480.0L644.6 488.0M733.2 480.0L735.4 488.0M62.3 488.0L61.6 496.0M164.5 488.0L168.0 492.1M170.3 488.0L168.0 492.1M240.0 488.1L233.4 496.0M240.1 488.0L240.0 488.1M285.5 488.0L288.0 489.8M296.0 495.7L288.0 489.8M296.4 496.0L296.0 495.7M408.0 495.4L407.1 496.0M416.0 489.6L408.0 495.4M418.0 488.0L416.0 489.6M493.6 488.0L491.5 496.0M644.6 488.0L643.8 496.0M735.4 488.0L736.0 488.9M741.8 496.0L736.0 488.9M61.6 496.0L60.6 504.0M232.0 497.6L226.2 504.0M233.4 496.0L232.0 497.6M296.4 496.0L304.0 500.3M312.0 503.8L304.0 500.3M312.9 504.0L312.0 503.8M400.0 500.7L395.7 504.0M407.1 496.0L400.0 500.7M488.0 502.0L485.9 504.0M491.5 496.0L488.0 502.0M643.8 496.0L642.9 504.0M741.8 496.0L744.0 497.9M752.0 503.9L744.0 497.9M752.1 504.0L752.0 503.9M60.6 504.0L57.2 512.0M88.0 510.3L82.1 512.0M96.0 509.0L88.0 510.3M104.0 509.0L96.0 509.0M112.0 510.7L104.0 509.0M114.4 512.0L112.0 510.7M224.0 506.4L217.2 512.0M226.2 504.0L224.0 506.4M312.9 504.0L320.0 505.7M328.0 507.0L320.0 505.7M336.0 509.0L328.0 507.0M344.0 511.3L336.0 509.0M346.3 512.0L344.0 511.3M392.0 507.1L386.0 512.0M395.7 504.0L392.0 507.1M480.0 508.2L474.0 512.0M485.9 504.0L480.0 508.2M642.9 504.0L642.0 512.0M752.1 504.0L760.0 511.9M760.1 512.0L760.0 511.9M56.0 513.1L48.7 520.0M57.2 512.0L56.0 513.1M72.0 518.8L70.9 520.0M80.0 512.9L72.0 518.8M82.1 512.0L80.0 512.9M114.4 512.0L120.0 515.7M123.6 520.0L120.0 515.7M200.0 518.2L195.6 520.0M208.0 515.9L200.0 518.2M216.0 513.0L208.0 515.9M217.2 512.0L216.0 513.0M346.3 512.0L352.0 513.9M360.0 516.5L352.0 513.9M368.0 518.3L360.0 516.5M376.0 517.8L368.0 518.3M384.0 513.6L376.0 517.8M386.0 512.0L384.0 513.6M472.0 513.4L465.8 520.0M474.0 512.0L472.0 513.4M642.0 512.0L640.9 520.0M760.1 512.0L764.0 520.0M32.0 526.8L27.7 528.0M40.0 524.1L32.0 526.8M48.0 520.3L40.0 524.1M48.7 520.0L48.0 520.3M70.9 520.0L68.4 528.0M123.6 520.0L128.0 526.9M128.6 528.0L128.0 526.9M192.0 521.7L184.5 528.0M195.6 520.0L192.0 521.7M464.0 523.3L461.9 528.0M465.8 520.0L464.0 523.3M640.0 526.1L639.5 528.0M640.9 520.0L640.0 526.1M764.0 520.0L765.8 528.0M8.0 531.2L0.0 531.6M16.0 530.3L8.0 531.2M24.0 528.9L16.0 530.3M27.7 528.0L24.0 528.9M68.4 528.0L68.4 536.0M128.6 528.0L133.3 536.0M176.0 534.8L174.8 536.0M184.0 528.3L176.0 534.8M184.5 528.0L184.0 528.3M461.9 528.0L460.4 536.0M639.5 528.0L636.9 536.0M765.8 528.0L766.4 536.0M68.4 536.0L68.7 544.0M133.3 536.0L135.1 544.0M168.0 542.3L166.4 544.0M174.8 536.0L168.0 542.3M460.4 536.0L460.8 544.0M636.9 536.0L633.2 544.0M766.4 536.0L767.8 544.0M68.7 544.0L69.2 552.0M135.1 544.0L131.8 552.0M166.4 544.0L161.1 552.0M460.8 544.0L462.8 552.0M632.0 546.5L628.7 552.0M633.2 544.0L632.0 546.5M767.8 544.0L768.0 544.7M770.5 552.0L768.0 544.7M69.2 552.0L72.0 559.6M80.0 559.4L72.0 559.6M88.0 558.8L80.0 559.4M96.0 558.5L88.0 558.8M104.0 558.8L96.0 558.5M112.0 559.0L104.0 558.8M120.0 557.3L112.0 559.0M128.0 554.2L120.0 557.3M131.8 552.0L128.0 554.2M160.0 554.8L157.2 560.0M161.1 552.0L160.0 554.8M462.8 552.0L464.0 554.9M466.7 560.0L464.0 554.9M628.7 552.0L625.7 560.0M770.5 552.0L775.1 560.0M64.0 565.9L62.2 568.0M65.6 568.0L64.0 565.9M157.2 560.0L156.1 568.0M466.7 560.0L471.9 568.0M625.7 560.0L624.6 568.0M775.1 560.0L776.0 561.2M784.0 568.0L776.0 561.2M784.1 568.0L784.0 568.0M56.0 571.7L53.9 576.0M62.2 568.0L56.0 571.7M65.6 568.0L67.0 576.0M156.1 568.0L157.3 576.0M471.9 568.0L472.0 568.2M480.0 575.2L472.0 568.2M481.1 576.0L480.0 575.2M624.6 568.0L624.7 576.0M784.1 568.0L792.0 571.7M800.0 572.8L792.0 571.7M808.0 573.9L800.0 572.8M812.6 576.0L808.0 573.9M53.9 576.0L51.5 584.0M67.0 576.0L67.0 584.0M157.3 576.0L159.5 584.0M481.1 576.0L483.7 584.0M624.7 576.0L625.1 584.0M812.6 576.0L816.0 579.0M819.4 584.0L816.0 579.0M51.5 584.0L53.6 592.0M67.0 584.0L64.7 592.0M159.5 584.0L160.0 585.1M162.0 592.0L160.0 585.1M480.0 588.2L476.4 592.0M483.7 584.0L480.0 588.2M625.1 584.0L625.2 592.0M819.4 584.0L819.2 592.0M53.6 592.0L56.0 593.5M64.0 592.6L56.0 593.5M64.7 592.0L64.0 592.6M162.0 592.0L165.1 600.0M472.0 594.0L465.9 600.0M476.4 592.0L472.0 594.0M624.0 597.9L623.6 600.0M625.2 592.0L624.0 597.9M816.0 597.1L813.2 600.0M819.2 592.0L816.0 597.1M165.1 600.0L168.0 605.1M169.3 608.0L168.0 605.1M464.0 601.4L458.4 608.0M465.9 600.0L464.0 601.4M623.6 600.0L621.0 608.0M784.0 606.7L780.0 608.0M792.0 604.9L784.0 606.7M800.0 604.3L792.0 604.9M808.0 602.8L800.0 604.3M813.2 600.0L808.0 602.8M169.3 608.0L174.9 616.0M456.0 610.9L452.7 616.0M458.4 608.0L456.0 610.9M621.0 608.0L618.0 616.0M760.0 615.2L758.0 616.0M768.0 612.0L760.0 615.2M776.0 609.2L768.0 612.0M780.0 608.0L776.0 609.2M174.9 616.0L176.0 617.1M184.0 623.3L176.0 617.1M185.3 624.0L184.0 623.3M368.0 623.9L367.7 624.0M376.0 622.6L368.0 623.9M384.0 623.8L376.0 622.6M384.5 624.0L384.0 623.8M452.7 616.0L448.4 624.0M520.0 619.9L515.9 624.0M528.0 616.8L520.0 619.9M536.0 616.2L528.0 616.8M544.0 617.8L536.0 616.2M552.0 621.6L544.0 617.8M555.3 624.0L552.0 621.6M616.0 621.8L615.3 624.0M618.0 616.0L616.0 621.8M736.0 624.0L735.9 624.0M744.0 621.3L736.0 624.0M752.0 618.4L744.0 621.3M758.0 616.0L752.0 618.4M185.3 624.0L192.0 627.0M200.0 629.3L192.0 627.0M208.0 630.7L200.0 629.3M216.0 631.7L208.0 630.7M217.1 632.0L216.0 631.7M352.0 630.0L347.4 632.0M360.0 626.6L352.0 630.0M367.7 624.0L360.0 626.6M384.5 624.0L392.0 627.6M397.9 632.0L392.0 627.6M448.0 624.8L444.6 632.0M448.4 624.0L448.0 624.8M515.9 624.0L512.8 632.0M555.3 624.0L560.0 629.3M562.0 632.0L560.0 629.3M615.3 624.0L613.3 632.0M720.0 631.0L717.7 632.0M728.0 627.4L720.0 631.0M735.9 624.0L728.0 627.4M217.1 632.0L224.0 634.8M231.8 640.0L224.0 634.8M336.0 637.2L328.8 640.0M344.0 633.6L336.0 637.2M347.4 632.0L344.0 633.6M397.9 632.0L400.0 633.9M405.9 640.0L400.0 633.9M444.6 632.0L441.2 640.0M512.8 632.0L512.5 640.0M562.0 632.0L565.1 640.0M613.3 632.0L612.5 640.0M704.0 640.0L703.9 640.0M712.0 635.8L704.0 640.0M717.7 632.0L712.0 635.8M231.8 640.0L232.0 640.2M239.4 648.0L232.0 640.2M304.0 646.3L300.0 648.0M312.0 643.7L304.0 646.3M320.0 642.1L312.0 643.7M328.0 640.3L320.0 642.1M328.8 640.0L328.0 640.3M405.9 640.0L408.0 642.0M415.4 648.0L408.0 642.0M440.0 642.4L435.1 648.0M441.2 640.0L440.0 642.4M512.5 640.0L512.8 648.0M565.1 640.0L567.4 648.0M612.5 640.0L611.6 648.0M680.0 646.7L677.9 648.0M688.0 643.7L680.0 646.7M696.0 642.4L688.0 643.7M703.9 640.0L696.0 642.4M239.4 648.0L240.0 648.7M247.7 656.0L240.0 648.7M288.0 653.3L282.2 656.0M296.0 649.7L288.0 653.3M300.0 648.0L296.0 649.7M415.4 648.0L416.0 648.4M424.0 651.0L416.0 648.4M432.0 650.2L424.0 651.0M435.1 648.0L432.0 650.2M512.8 648.0L512.2 656.0M567.4 648.0L568.0 649.3M571.5 656.0L568.0 649.3M611.6 648.0L608.5 656.0M672.0 651.7L667.4 656.0M677.9 648.0L672.0 651.7M247.7 656.0L248.0 656.3M256.0 661.2L248.0 656.3M264.0 662.5L256.0 661.2M272.0 660.5L264.0 662.5M280.0 657.1L272.0 660.5M282.2 656.0L280.0 657.1M512.0 657.7L511.1 664.0M512.2 656.0L512.0 657.7M571.5 656.0L576.0 662.7M577.6 664.0L576.0 662.7M608.0 656.8L602.0 664.0M608.5 656.0L608.0 656.8M664.0 660.7L662.1 664.0M667.4 656.0L664.0 660.7M511.1 664.0L509.6 672.0M577.6 664.0L584.0 669.1M592.0 669.7L584.0 669.1M600.0 665.8L592.0 669.7M602.0 664.0L600.0 665.8M662.1 664.0L659.4 672.0M509.6 672.0L507.6 680.0M659.4 672.0L658.3 680.0M792.0 676.4L786.4 680.0M800.0 674.8L792.0 676.4M808.0 676.3L800.0 674.8M814.3 680.0L808.0 676.3M507.6 680.0L505.9 688.0M658.3 680.0L658.1 688.0M784.0 682.8L781.3 688.0M786.4 680.0L784.0 682.8M814.3 680.0L816.0 681.8M819.6 688.0L816.0 681.8M505.9 688.0L506.0 696.0M658.1 688.0L658.3 696.0M781.3 688.0L779.6 696.0M819.6 688.0L821.5 696.0M506.0 696.0L510.3 704.0M658.3 696.0L658.8 704.0M779.6 696.0L777.3 704.0M821.5 696.0L822.9 704.0M8.0 709.2L0.0 707.7M14.7 712.0L8.0 709.2M510.3 704.0L512.0 705.6M519.5 712.0L512.0 705.6M658.8 704.0L659.6 712.0M776.0 706.7L773.0 712.0M777.3 704.0L776.0 706.7M822.9 704.0L824.0 709.6M14.7 712.0L16.0 712.4M24.0 715.3L16.0 712.4M32.0 717.7L24.0 715.3M40.0 719.5L32.0 717.7M43.3 720.0L40.0 719.5M519.5 712.0L520.0 712.3M528.0 716.5L520.0 712.3M536.0 719.8L528.0 716.5M536.4 720.0L536.0 719.8M659.6 712.0L660.7 720.0M768.0 717.1L763.7 720.0M773.0 712.0L768.0 717.1M43.3 720.0L48.0 720.6M56.0 721.2L48.0 720.6M64.0 723.4L56.0 721.2M72.0 727.1L64.0 723.4M73.7 728.0L72.0 727.1M160.0 727.7L158.3 728.0M162.1 728.0L160.0 727.7M536.4 720.0L544.0 724.2M547.9 728.0L544.0 724.2M660.7 720.0L662.1 728.0M744.0 725.7L737.9 728.0M752.0 724.4L744.0 725.7M760.0 721.9L752.0 724.4M763.7 720.0L760.0 721.9M73.7 728.0L80.0 731.6M88.0 735.9L80.0 731.6M88.2 736.0L88.0 735.9M136.0 735.4L134.5 736.0M144.0 732.2L136.0 735.4M152.0 728.9L144.0 732.2M158.3 728.0L152.0 728.9M162.1 728.0L168.0 728.8M176.0 729.7L168.0 728.8M184.0 730.2L176.0 729.7M192.0 730.5L184.0 730.2M200.0 730.7L192.0 730.5M208.0 730.9L200.0 730.7M216.0 731.4L208.0 730.9M224.0 733.0L216.0 731.4M231.6 736.0L224.0 733.0M547.9 728.0L552.0 735.3M552.3 736.0L552.0 735.3M662.1 728.0L663.8 736.0M728.0 735.3L727.4 736.0M736.0 728.9L728.0 735.3M737.9 728.0L736.0 728.9M88.2 736.0L96.0 740.1M104.0 742.3L96.0 740.1M112.0 742.0L104.0 742.3M120.0 740.5L112.0 742.0M128.0 738.3L120.0 740.5M134.5 736.0L128.0 738.3M231.6 736.0L232.0 736.3M238.4 744.0L232.0 736.3M312.0 741.8L306.1 744.0M320.0 741.4L312.0 741.8M328.0 742.6L320.0 741.4M336.0 743.8L328.0 742.6M337.3 744.0L336.0 743.8M552.3 736.0L553.8 744.0M663.8 736.0L664.0 736.9M665.5 744.0L664.0 736.9M727.4 736.0L722.3 744.0M238.4 744.0L238.7 752.0M304.0 745.9L300.0 752.0M306.1 744.0L304.0 745.9M337.3 744.0L344.0 746.2M352.0 750.1L344.0 746.2M354.6 752.0L352.0 750.1M553.8 744.0L553.9 752.0M665.5 744.0L666.9 752.0M720.0 751.8L719.9 752.0M722.3 744.0L720.0 751.8M232.0 757.6L228.0 760.0M238.7 752.0L232.0 757.6M300.0 752.0L300.3 760.0M352.0 754.3L347.7 760.0M354.6 752.0L352.0 754.3M553.9 752.0L554.1 760.0M666.9 752.0L668.2 760.0M719.9 752.0L718.3 760.0M208.0 765.2L200.1 768.0M216.0 763.5L208.0 765.2M224.0 761.4L216.0 763.5M228.0 760.0L224.0 761.4M300.3 760.0L302.9 768.0M344.0 763.1L340.0 768.0M347.7 760.0L344.0 763.1M554.1 760.0L554.4 768.0M668.2 760.0L670.0 768.0M718.3 760.0L716.5 768.0M8.0 773.0L0.0 772.5M16.0 774.6L8.0 773.0M20.3 776.0L16.0 774.6M192.0 773.1L189.4 776.0M200.0 768.1L192.0 773.1M200.1 768.0L200.0 768.1M302.9 768.0L304.0 771.1M306.1 776.0L304.0 771.1M336.0 774.0L334.9 776.0M340.0 768.0L336.0 774.0M554.4 768.0L554.7 776.0M670.0 768.0L672.0 773.7M673.7 776.0L672.0 773.7M716.5 768.0L712.9 776.0M20.3 776.0L24.0 777.3M32.0 781.1L24.0 777.3M37.1 784.0L32.0 781.1M189.4 776.0L184.8 784.0M306.1 776.0L308.9 784.0M334.9 776.0L331.2 784.0M554.7 776.0L554.9 784.0M673.7 776.0L680.0 780.9M688.0 782.5L680.0 780.9M696.0 781.7L688.0 782.5M704.0 780.4L696.0 781.7M712.0 777.0L704.0 780.4M712.9 776.0L712.0 777.0M37.1 784.0L40.0 786.3M46.8 792.0L40.0 786.3M184.0 786.5L182.5 792.0M184.8 784.0L184.0 786.5M308.9 784.0L310.7 792.0M331.2 784.0L329.1 792.0M554.9 784.0L555.1 792.0M46.8 792.0L48.0 794.6M51.0 800.0L48.0 794.6M182.5 792.0L181.7 800.0M310.7 792.0L311.3 800.0M329.1 792.0L328.4 800.0M555.1 792.0L555.2 800.0M728.0 794.1L725.4 800.0M736.0 792.2L728.0 794.1M744.0 799.8L736.0 792.2M744.1 800.0L744.0 799.8M51.0 800.0L50.3 808.0M181.7 800.0L181.5 808.0M311.3 800.0L311.2 808.0M328.4 800.0L328.3 808.0M555.2 800.0L554.4 808.0M725.4 800.0L726.6 808.0M744.0 800.3L739.0 808.0M744.1 800.0L744.0 800.3M50.3 808.0L48.4 816.0M181.5 808.0L180.8 816.0M311.2 808.0L310.9 816.0M328.0 815.9L328.0 816.0M328.3 808.0L328.0 815.9M552.0 814.9L551.5 816.0M554.4 808.0L552.0 814.9M726.6 808.0L728.0 810.1M736.0 810.3L728.0 810.1M739.0 808.0L736.0 810.3M48.0 817.3L45.0 824.0M48.4 816.0L48.0 817.3M180.8 816.0L179.8 824.0M310.9 816.0L310.0 824.0M328.0 816.0L326.6 824.0M544.0 823.7L543.6 824.0M551.5 816.0L544.0 823.7M680.0 820.5L675.5 824.0M688.0 818.7L680.0 820.5M696.0 819.7L688.0 818.7M704.0 820.6L696.0 819.7M712.0 821.9L704.0 820.6M715.9 824.0L712.0 821.9M195.4 0.0L196.2 8.0M385.8 0.0L387.1 8.0M502.3 0.0L501.4 8.0M820.2 0.0L820.6 8.0M196.2 8.0L198.9 16.0M387.1 8.0L390.4 16.0M501.4 8.0L498.6 16.0M752.0 13.4L748.4 16.0M760.0 12.8L752.0 13.4M765.9 16.0L760.0 12.8M820.6 8.0L821.8 16.0M198.9 16.0L200.0 17.6M208.0 21.7L200.0 17.6M216.0 20.4L208.0 21.7M224.0 18.3L216.0 20.4M232.0 17.4L224.0 18.3M240.0 17.6L232.0 17.4M248.0 18.5L240.0 17.6M256.0 19.9L248.0 18.5M264.0 21.8L256.0 19.9M271.2 24.0L264.0 21.8M390.4 16.0L392.0 18.6M395.0 24.0L392.0 18.6M496.0 20.3L492.8 24.0M498.6 16.0L496.0 20.3M744.0 18.2L736.2 24.0M748.4 16.0L744.0 18.2M765.9 16.0L768.0 17.0M774.6 24.0L768.0 17.0M821.8 16.0L824.0 22.7M271.2 24.0L272.0 24.2M280.0 26.9L272.0 24.2M288.0 31.9L280.0 26.9M288.1 32.0L288.0 31.9M395.0 24.0L400.0 31.4M400.4 32.0L400.0 31.4M480.0 32.0L479.9 32.0M488.0 27.9L480.0 32.0M492.8 24.0L488.0 27.9M728.0 30.6L726.4 32.0M736.0 24.2L728.0 30.6M736.2 24.0L736.0 24.2M774.6 24.0L776.0 25.8M779.7 32.0L776.0 25.8M8.0 32.6L0.0 32.2M16.0 33.7L8.0 32.6M24.0 35.9L16.0 33.7M32.0 39.9L24.0 35.9M32.2 40.0L32.0 39.9M144.0 39.0L136.5 40.0M148.0 40.0L144.0 39.0M288.1 32.0L293.3 40.0M400.4 32.0L406.6 40.0M464.0 38.4L459.5 40.0M472.0 35.2L464.0 38.4M479.9 32.0L472.0 35.2M720.0 37.8L717.4 40.0M726.4 32.0L720.0 37.8M779.7 32.0L782.9 40.0M32.2 40.0L40.0 47.2M40.7 48.0L40.0 47.2M136.5 40.0L144.0 48.0M148.0 40.0L152.0 46.9M152.3 48.0L152.0 46.9M293.3 40.0L295.8 48.0M406.6 40.0L408.0 41.9M414.4 48.0L408.0 41.9M448.0 45.2L442.1 48.0M456.0 41.6L448.0 45.2M459.5 40.0L456.0 41.6M712.0 45.3L708.5 48.0M717.4 40.0L712.0 45.3M782.9 40.0L784.0 45.2M784.7 48.0L784.0 45.2M40.7 48.0L46.6 56.0M144.0 48.0L144.0 48.0M152.0 48.1L144.0 48.0M152.3 48.0L152.0 48.1M295.8 48.0L296.0 48.8M297.6 56.0L296.0 48.8M414.4 48.0L416.0 49.4M424.0 53.0L416.0 49.4M432.0 52.6L424.0 53.0M440.0 49.3L432.0 52.6M442.1 48.0L440.0 49.3M680.0 55.9L677.7 56.0M681.2 56.0L680.0 55.9M696.0 55.9L695.1 56.0M704.0 52.0L696.0 55.9M708.5 48.0L704.0 52.0M784.7 48.0L785.4 56.0M46.6 56.0L48.0 57.6M54.3 64.0L48.0 57.6M297.6 56.0L298.9 64.0M648.0 62.8L645.6 64.0M656.0 59.6L648.0 62.8M664.0 57.4L656.0 59.6M672.0 56.2L664.0 57.4M677.7 56.0L672.0 56.2M681.2 56.0L688.0 56.5M695.1 56.0L688.0 56.5M785.4 56.0L785.3 64.0M54.3 64.0L56.0 65.6M62.0 72.0L56.0 65.6M298.9 64.0L299.9 72.0M640.0 67.2L634.7 72.0M645.6 64.0L640.0 67.2M785.3 64.0L785.0 72.0M62.0 72.0L64.0 74.6M67.0 80.0L64.0 74.6M299.9 72.0L300.6 80.0M632.0 74.5L627.1 80.0M634.7 72.0L632.0 74.5M785.0 72.0L784.6 80.0M67.0 80.0L69.7 88.0M300.6 80.0L301.1 88.0M352.0 87.5L351.6 88.0M360.0 82.0L352.0 87.5M368.0 80.4L360.0 82.0M376.0 82.1L368.0 80.4M383.0 88.0L376.0 82.1M624.0 83.3L618.9 88.0M627.1 80.0L624.0 83.3M784.6 80.0L784.2 88.0M69.7 88.0L71.2 96.0M301.1 88.0L301.6 96.0M351.6 88.0L346.9 96.0M383.0 88.0L384.0 89.5M386.4 96.0L384.0 89.5M536.0 93.3L530.3 96.0M544.0 93.5L536.0 93.3M552.0 95.4L544.0 93.5M553.7 96.0L552.0 95.4M616.0 90.7L608.3 96.0M618.9 88.0L616.0 90.7M784.0 92.1L783.9 96.0M784.2 88.0L784.0 92.1M71.2 96.0L71.7 104.0M301.6 96.0L302.0 104.0M346.9 96.0L344.7 104.0M386.4 96.0L387.5 104.0M528.0 98.1L525.8 104.0M530.3 96.0L528.0 98.1M553.7 96.0L560.0 99.2M568.0 103.6L560.0 99.2M568.9 104.0L568.0 103.6M600.0 101.9L595.6 104.0M608.0 96.3L600.0 101.9M608.3 96.0L608.0 96.3M783.9 96.0L783.8 104.0M71.7 104.0L71.3 112.0M302.0 104.0L302.7 112.0M344.7 104.0L344.0 112.0M387.5 104.0L387.3 112.0M525.8 104.0L525.9 112.0M568.9 104.0L574.9 112.0M592.0 108.2L587.3 112.0M595.6 104.0L592.0 108.2M783.8 104.0L783.7 112.0M71.3 112.0L69.6 120.0M302.7 112.0L304.0 119.7M304.1 120.0L304.0 119.7M344.0 112.0L344.4 120.0M387.3 112.0L386.2 120.0M525.9 112.0L528.0 116.9M531.1 120.0L528.0 116.9M574.9 112.0L576.0 113.8M584.0 114.8L576.0 113.8M587.3 112.0L584.0 114.8M783.7 112.0L783.2 120.0M69.6 120.0L66.6 128.0M304.1 120.0L305.3 128.0M344.4 120.0L347.1 128.0M384.0 125.6L382.5 128.0M386.2 120.0L384.0 125.6M531.1 120.0L536.0 122.8M544.0 125.5L536.0 122.8M550.9 128.0L544.0 125.5M783.2 120.0L781.5 128.0M64.0 133.1L62.1 136.0M66.6 128.0L64.0 133.1M305.3 128.0L305.8 136.0M347.1 128.0L352.0 133.6M356.6 136.0L352.0 133.6M376.0 134.4L372.0 136.0M382.5 128.0L376.0 134.4M550.9 128.0L552.0 128.5M560.0 133.2L552.0 128.5M562.5 136.0L560.0 133.2M781.5 128.0L778.2 136.0M56.0 143.4L55.5 144.0M62.1 136.0L56.0 143.4M305.8 136.0L305.0 144.0M356.6 136.0L360.0 137.2M368.0 137.4L360.0 137.2M372.0 136.0L368.0 137.4M562.5 136.0L566.2 144.0M776.0 139.4L772.7 144.0M778.2 136.0L776.0 139.4M48.0 151.7L47.8 152.0M55.5 144.0L48.0 151.7M304.0 148.0L303.2 152.0M305.0 144.0L304.0 148.0M566.2 144.0L568.0 150.2M568.5 152.0L568.0 150.2M768.0 149.2L764.6 152.0M772.7 144.0L768.0 149.2M47.8 152.0L41.5 160.0M152.0 158.5L147.3 160.0M160.0 158.9L152.0 158.5M161.8 160.0L160.0 158.9M303.2 152.0L300.5 160.0M568.5 152.0L571.5 160.0M688.0 155.5L682.7 160.0M696.0 153.7L688.0 155.5M704.0 154.8L696.0 153.7M712.0 157.0L704.0 154.8M720.0 159.6L712.0 157.0M721.5 160.0L720.0 159.6M760.0 156.3L754.3 160.0M764.6 152.0L760.0 156.3M40.0 162.8L36.7 168.0M41.5 160.0L40.0 162.8M136.0 165.4L131.4 168.0M144.0 161.2L136.0 165.4M147.3 160.0L144.0 161.2M161.8 160.0L168.0 165.7M169.3 168.0L168.0 165.7M300.5 160.0L296.8 168.0M571.5 160.0L576.0 166.8M577.3 168.0L576.0 166.8M680.0 162.3L675.0 168.0M682.7 160.0L680.0 162.3M721.5 160.0L728.0 162.7M736.0 165.2L728.0 162.7M744.0 165.6L736.0 165.2M752.0 162.3L744.0 165.6M754.3 160.0L752.0 162.3M32.0 175.5L31.5 176.0M36.7 168.0L32.0 175.5M96.0 176.0L95.6 176.0M104.0 175.5L96.0 176.0M112.0 175.0L104.0 175.5M120.0 172.8L112.0 175.0M128.0 169.6L120.0 172.8M131.4 168.0L128.0 169.6M169.3 168.0L173.0 176.0M296.0 169.4L292.9 176.0M296.8 168.0L296.0 169.4M577.3 168.0L584.0 171.4M592.0 173.0L584.0 171.4M600.0 174.7L592.0 173.0M605.8 176.0L600.0 174.7M672.0 170.8L666.0 176.0M675.0 168.0L672.0 170.8M24.0 182.8L21.1 184.0M31.5 176.0L24.0 182.8M64.0 183.0L61.5 184.0M72.0 180.4L64.0 183.0M80.0 178.4L72.0 180.4M88.0 176.9L80.0 178.4M95.6 176.0L88.0 176.9M173.0 176.0L175.9 184.0M292.9 176.0L289.1 184.0M605.8 176.0L608.0 176.4M616.0 178.0L608.0 176.4M624.0 179.6L616.0 178.0M632.0 181.3L624.0 179.6M640.0 182.9L632.0 181.3M648.0 183.3L640.0 182.9M656.0 181.4L648.0 183.3M664.0 177.4L656.0 181.4M666.0 176.0L664.0 177.4M8.0 187.3L0.0 187.8M16.0 185.8L8.0 187.3M21.1 184.0L16.0 185.8M56.0 186.8L48.8 192.0M61.5 184.0L56.0 186.8M175.9 184.0L176.0 184.3M178.1 192.0L176.0 184.3M288.0 186.5L285.5 192.0M289.1 184.0L288.0 186.5M48.0 193.1L43.7 200.0M48.8 192.0L48.0 193.1M178.1 192.0L180.0 200.0M285.5 192.0L282.6 200.0M43.7 200.0L43.1 208.0M180.0 200.0L181.6 208.0M282.6 200.0L280.4 208.0M43.1 208.0L44.8 216.0M181.6 208.0L183.2 216.0M280.0 210.9L279.1 216.0M280.4 208.0L280.0 210.9M44.8 216.0L45.8 224.0M183.2 216.0L184.0 218.6M185.8 224.0L184.0 218.6M279.1 216.0L278.8 224.0M45.8 224.0L45.6 232.0M185.8 224.0L189.7 232.0M278.8 224.0L279.3 232.0M45.6 232.0L44.2 240.0M189.7 232.0L192.0 235.3M196.2 240.0L192.0 235.3M279.3 232.0L279.8 240.0M44.2 240.0L42.1 248.0M196.2 240.0L200.0 243.5M207.0 248.0L200.0 243.5M279.8 240.0L280.0 248.0M280.0 248.0L280.0 248.0M40.0 254.1L39.4 256.0M42.1 248.0L40.0 254.1M207.0 248.0L208.0 248.7M216.0 252.3L208.0 248.7M222.2 256.0L216.0 252.3M280.0 248.0L279.8 256.0M280.0 248.0L280.0 248.0M39.4 256.0L36.4 264.0M222.2 256.0L224.0 257.6M229.5 264.0L224.0 257.6M279.8 256.0L278.9 264.0M664.0 263.3L659.8 264.0M672.0 261.9L664.0 263.3M680.0 260.6L672.0 261.9M688.0 259.8L680.0 260.6M696.0 259.7L688.0 259.8M700.1 264.0L696.0 259.7M36.4 264.0L32.6 272.0M229.5 264.0L232.0 269.6M233.2 272.0L232.0 269.6M278.9 264.0L276.1 272.0M640.0 266.8L635.9 272.0M648.0 268.3L640.0 266.8M656.0 267.6L648.0 268.3M659.8 264.0L656.0 267.6M700.1 264.0L700.1 272.0M32.0 273.0L26.5 280.0M32.6 272.0L32.0 273.0M233.2 272.0L237.8 280.0M272.0 276.2L266.6 280.0M276.1 272.0L272.0 276.2M632.0 275.7L630.2 280.0M635.9 272.0L632.0 275.7M700.1 272.0L700.8 280.0M8.0 286.4L0.0 286.8M16.0 285.1L8.0 286.4M24.0 281.8L16.0 285.1M26.5 280.0L24.0 281.8M237.8 280.0L240.0 281.8M248.0 283.7L240.0 281.8M256.0 283.2L248.0 283.7M264.0 281.2L256.0 283.2M266.6 280.0L264.0 281.2M630.2 280.0L624.0 288.0M700.8 280.0L703.0 288.0M800.0 287.7L793.3 288.0M807.5 288.0L800.0 287.7M616.0 294.3L612.7 296.0M624.0 288.0L616.0 294.3M624.0 288.0L624.0 288.0M664.0 292.5L662.3 296.0M666.6 296.0L664.0 292.5M703.0 288.0L704.0 290.1M705.6 296.0L704.0 290.1M768.0 294.4L765.1 296.0M776.0 291.2L768.0 294.4M784.0 289.1L776.0 291.2M792.0 288.1L784.0 289.1M793.3 288.0L792.0 288.1M807.5 288.0L808.0 288.0M816.0 289.0L808.0 288.0M824.0 290.9L816.0 289.0M568.0 301.8L565.1 304.0M576.0 299.7L568.0 301.8M584.0 299.4L576.0 299.7M592.0 300.0L584.0 299.4M600.0 299.5L592.0 300.0M608.0 297.8L600.0 299.5M612.7 296.0L608.0 297.8M662.3 296.0L659.8 304.0M666.6 296.0L670.9 304.0M705.6 296.0L709.0 304.0M760.0 299.6L754.7 304.0M765.1 296.0L760.0 299.6M216.0 308.7L212.9 312.0M219.4 312.0L216.0 308.7M560.0 310.6L559.4 312.0M565.1 304.0L560.0 310.6M659.8 304.0L659.0 312.0M670.9 304.0L672.0 306.0M673.1 312.0L672.0 306.0M709.0 304.0L712.0 309.9M713.2 312.0L712.0 309.9M752.0 307.3L747.1 312.0M754.7 304.0L752.0 307.3M212.9 312.0L214.4 320.0M219.4 312.0L217.3 320.0M559.4 312.0L556.6 320.0M659.0 312.0L659.6 320.0M673.1 312.0L675.6 320.0M713.2 312.0L716.0 320.0M744.0 318.0L741.8 320.0M747.1 312.0L744.0 318.0M214.4 320.0L216.0 321.0M217.3 320.0L216.0 321.0M556.6 320.0L553.4 328.0M656.0 322.5L653.6 328.0M659.6 320.0L656.0 322.5M675.6 320.0L680.0 321.1M688.0 323.9L680.0 321.1M696.0 326.9L688.0 323.9M704.0 326.6L696.0 326.9M712.0 322.9L704.0 326.6M716.0 320.0L712.0 322.9M741.8 320.0L743.4 328.0M552.0 330.7L549.2 336.0M553.4 328.0L552.0 330.7M648.0 334.0L646.9 336.0M653.6 328.0L648.0 334.0M743.4 328.0L744.0 328.5M748.3 336.0L744.0 328.5M549.2 336.0L544.3 344.0M646.9 336.0L641.2 344.0M748.3 336.0L752.0 340.1M754.5 344.0L752.0 340.1M544.0 344.6L539.6 352.0M544.3 344.0L544.0 344.6M640.0 345.6L635.7 352.0M641.2 344.0L640.0 345.6M754.5 344.0L760.0 350.6M761.1 352.0L760.0 350.6M539.6 352.0L536.3 360.0M632.0 357.5L630.6 360.0M635.7 352.0L632.0 357.5M761.1 352.0L768.0 359.7M768.3 360.0L768.0 359.7M536.0 363.7L535.7 368.0M536.3 360.0L536.0 363.7M630.6 360.0L626.3 368.0M768.3 360.0L776.0 367.8M776.2 368.0L776.0 367.8M535.7 368.0L536.0 368.7M540.3 376.0L536.0 368.7M624.0 372.6L622.2 376.0M626.3 368.0L624.0 372.6M776.2 368.0L784.0 376.0M784.0 376.0L784.0 376.0M540.3 376.0L544.0 380.1M549.1 384.0L544.0 380.1M616.0 383.2L614.9 384.0M622.2 376.0L616.0 383.2M784.0 376.0L792.0 381.0M800.0 382.4L792.0 381.0M808.0 383.7L800.0 382.4M808.8 384.0L808.0 383.7M549.1 384.0L552.0 385.6M560.0 388.0L552.0 385.6M568.0 388.9L560.0 388.0M576.0 389.0L568.0 388.9M584.0 389.2L576.0 389.0M592.0 389.2L584.0 389.2M600.0 388.6L592.0 389.2M608.0 387.0L600.0 388.6M614.9 384.0L608.0 387.0M808.8 384.0L816.0 386.7M824.0 391.1L816.0 386.7M8.0 401.4L0.0 401.0M16.0 402.9L8.0 401.4M24.0 407.1L16.0 402.9M24.9 408.0L24.0 407.1M640.0 407.6L639.8 408.0M648.0 403.2L640.0 407.6M656.0 405.3L648.0 403.2M660.7 408.0L656.0 405.3M728.0 406.8L725.4 408.0M736.0 404.4L728.0 406.8M744.0 403.8L736.0 404.4M752.0 405.3L744.0 403.8M757.0 408.0L752.0 405.3M24.9 408.0L30.6 416.0M639.8 408.0L637.3 416.0M660.7 408.0L664.0 409.9M672.0 415.5L664.0 409.9M672.6 416.0L672.0 415.5M720.0 411.4L714.1 416.0M725.4 408.0L720.0 411.4M757.0 408.0L760.0 411.5M762.1 416.0L760.0 411.5M30.6 416.0L32.0 418.6M34.3 424.0L32.0 418.6M432.0 421.9L425.1 424.0M440.0 421.6L432.0 421.9M448.0 422.8L440.0 421.6M451.8 424.0L448.0 422.8M637.3 416.0L636.7 424.0M672.6 416.0L680.0 422.1M682.6 424.0L680.0 422.1M712.0 418.6L706.8 424.0M714.1 416.0L712.0 418.6M762.1 416.0L762.3 424.0M34.3 424.0L38.0 432.0M424.0 424.8L418.6 432.0M425.1 424.0L424.0 424.8M451.8 424.0L456.0 426.4M463.6 432.0L456.0 426.4M636.7 424.0L637.9 432.0M682.6 424.0L688.0 428.3M696.0 431.3L688.0 428.3M704.0 427.7L696.0 431.3M706.8 424.0L704.0 427.7M760.0 430.7L759.5 432.0M762.3 424.0L760.0 430.7M38.0 432.0L40.0 436.6M41.4 440.0L40.0 436.6M418.6 432.0L418.7 440.0M463.6 432.0L464.0 432.4M470.6 440.0L464.0 432.4M637.9 432.0L640.0 437.2M641.5 440.0L640.0 437.2M759.5 432.0L753.6 440.0M41.4 440.0L44.2 448.0M418.7 440.0L422.9 448.0M470.6 440.0L472.0 442.3M475.4 448.0L472.0 442.3M641.5 440.0L646.6 448.0M744.0 447.5L743.0 448.0M752.0 441.6L744.0 447.5M753.6 440.0L752.0 441.6M44.2 448.0L46.2 456.0M422.9 448.0L424.0 449.2M431.4 456.0L424.0 449.2M475.4 448.0L477.5 456.0M646.6 448.0L648.0 450.1M652.1 456.0L648.0 450.1M736.0 451.9L729.7 456.0M743.0 448.0L736.0 451.9M46.2 456.0L47.3 464.0M431.4 456.0L432.0 456.5M440.0 462.5L432.0 456.5M442.1 464.0L440.0 462.5M477.5 456.0L477.8 464.0M652.1 456.0L656.0 464.0M656.0 464.0L656.0 464.0M728.0 457.6L723.1 464.0M729.7 456.0L728.0 457.6M47.3 464.0L47.1 472.0M442.1 464.0L448.0 470.5M449.5 472.0L448.0 470.5M477.8 464.0L477.5 472.0M656.0 464.0L658.2 472.0M723.1 464.0L720.7 472.0M47.1 472.0L45.3 480.0M449.5 472.0L453.4 480.0M477.5 472.0L476.6 480.0M658.2 472.0L658.7 480.0M720.7 472.0L720.0 480.0M45.3 480.0L42.0 488.0M453.4 480.0L456.0 486.9M457.3 488.0L456.0 486.9M472.0 487.6L471.2 488.0M476.6 480.0L472.0 487.6M658.7 480.0L658.0 488.0M720.0 480.0L721.8 488.0M40.0 491.8L37.2 496.0M42.0 488.0L40.0 491.8M264.0 494.8L257.8 496.0M267.5 496.0L264.0 494.8M457.3 488.0L464.0 490.2M471.2 488.0L464.0 490.2M658.0 488.0L657.0 496.0M721.8 488.0L726.6 496.0M32.0 501.9L29.5 504.0M37.2 496.0L32.0 501.9M248.0 501.5L245.4 504.0M256.0 496.3L248.0 501.5M257.8 496.0L256.0 496.3M267.5 496.0L272.0 497.3M280.0 501.3L272.0 497.3M284.5 504.0L280.0 501.3M656.0 503.3L655.9 504.0M657.0 496.0L656.0 503.3M726.6 496.0L728.0 497.6M734.2 504.0L728.0 497.6M16.0 511.6L14.5 512.0M24.0 507.8L16.0 511.6M29.5 504.0L24.0 507.8M240.0 509.5L237.8 512.0M245.4 504.0L240.0 509.5M284.5 504.0L288.0 505.9M296.0 510.2L288.0 505.9M299.6 512.0L296.0 510.2M432.0 510.7L425.5 512.0M436.4 512.0L432.0 510.7M655.9 504.0L654.9 512.0M734.2 504.0L736.0 505.5M744.0 511.7L736.0 505.5M744.5 512.0L744.0 511.7M8.0 513.7L0.0 514.4M14.5 512.0L8.0 513.7M232.0 519.2L231.3 520.0M237.8 512.0L232.0 519.2M299.6 512.0L304.0 514.1M312.0 517.0L304.0 514.1M320.0 518.7L312.0 517.0M327.1 520.0L320.0 518.7M416.0 516.2L410.6 520.0M424.0 512.3L416.0 516.2M425.5 512.0L424.0 512.3M436.4 512.0L440.0 514.3M442.2 520.0L440.0 514.3M654.9 512.0L653.9 520.0M744.5 512.0L752.0 518.5M753.1 520.0L752.0 518.5M231.3 520.0L224.5 528.0M327.1 520.0L328.0 520.2M336.0 522.9L328.0 520.2M344.0 526.5L336.0 522.9M347.0 528.0L344.0 526.5M408.0 522.2L402.2 528.0M410.6 520.0L408.0 522.2M442.2 520.0L442.9 528.0M653.9 520.0L653.2 528.0M753.1 520.0L756.6 528.0M104.0 535.6L103.4 536.0M105.8 536.0L104.0 535.6M216.0 535.5L214.7 536.0M224.0 528.7L216.0 535.5M224.5 528.0L224.0 528.7M347.0 528.0L352.0 530.7M360.0 535.1L352.0 530.7M362.0 536.0L360.0 535.1M400.0 530.4L393.8 536.0M402.2 528.0L400.0 530.4M442.9 528.0L442.5 536.0M653.2 528.0L652.5 536.0M756.6 528.0L757.5 536.0M103.4 536.0L104.0 536.8M105.8 536.0L104.0 536.8M200.0 540.5L192.9 544.0M208.0 537.8L200.0 540.5M214.7 536.0L208.0 537.8M362.0 536.0L368.0 538.8M376.0 540.9L368.0 538.8M384.0 540.4L376.0 540.9M392.0 537.2L384.0 540.4M393.8 536.0L392.0 537.2M442.5 536.0L442.8 544.0M652.5 536.0L651.7 544.0M757.5 536.0L758.5 544.0M184.0 549.9L181.9 552.0M192.0 544.4L184.0 549.9M192.9 544.0L192.0 544.4M442.8 544.0L444.2 552.0M651.7 544.0L650.7 552.0M758.5 544.0L760.0 551.5M760.1 552.0L760.0 551.5M181.9 552.0L176.5 560.0M444.2 552.0L446.3 560.0M650.7 552.0L649.5 560.0M760.1 552.0L762.3 560.0M176.0 561.5L173.9 568.0M176.5 560.0L176.0 561.5M446.3 560.0L448.0 565.7M448.7 568.0L448.0 565.7M649.5 560.0L648.2 568.0M762.3 560.0L765.7 568.0M173.9 568.0L173.2 576.0M448.7 568.0L451.1 576.0M648.0 570.3L647.2 576.0M648.2 568.0L648.0 570.3M765.7 568.0L768.0 572.7M770.4 576.0L768.0 572.7M173.2 576.0L173.8 584.0M451.1 576.0L451.2 584.0M647.2 576.0L647.8 584.0M770.4 576.0L775.4 584.0M173.8 584.0L175.6 592.0M451.2 584.0L448.7 592.0M647.8 584.0L648.0 585.3M649.1 592.0L648.0 585.3M775.4 584.0L773.9 592.0M175.6 592.0L176.0 593.0M178.5 600.0L176.0 593.0M448.0 593.3L444.8 600.0M448.7 592.0L448.0 593.3M649.1 592.0L649.3 600.0M768.0 596.1L762.9 600.0M773.9 592.0L768.0 596.1M178.5 600.0L183.6 608.0M444.8 600.0L440.8 608.0M649.3 600.0L648.2 608.0M752.0 605.5L746.9 608.0M760.0 601.4L752.0 605.5M762.9 600.0L760.0 601.4M183.6 608.0L184.0 608.5M192.0 615.3L184.0 608.5M193.3 616.0L192.0 615.3M360.0 613.5L354.5 616.0M368.0 610.5L360.0 613.5M376.0 608.6L368.0 610.5M384.0 608.6L376.0 608.6M392.0 610.5L384.0 608.6M400.0 614.2L392.0 610.5M403.2 616.0L400.0 614.2M440.0 609.6L436.1 616.0M440.8 608.0L440.0 609.6M648.0 608.9L645.4 616.0M648.2 608.0L648.0 608.9M720.0 615.9L719.6 616.0M728.0 613.9L720.0 615.9M736.0 611.8L728.0 613.9M744.0 609.2L736.0 611.8M746.9 608.0L744.0 609.2M193.3 616.0L200.0 619.1M208.0 621.3L200.0 619.1M216.0 622.3L208.0 621.3M224.0 623.7L216.0 622.3M225.5 624.0L224.0 623.7M336.0 623.6L334.7 624.0M344.0 620.5L336.0 623.6M352.0 617.1L344.0 620.5M354.5 616.0L352.0 617.1M403.2 616.0L408.0 619.1M415.5 624.0L408.0 619.1M432.0 622.8L430.1 624.0M436.1 616.0L432.0 622.8M645.4 616.0L640.6 624.0M680.0 623.4L675.8 624.0M688.0 622.4L680.0 623.4M696.0 621.4L688.0 622.4M704.0 619.9L696.0 621.4M712.0 617.9L704.0 619.9M719.6 616.0L712.0 617.9M225.5 624.0L232.0 626.1M240.0 630.3L232.0 626.1M242.4 632.0L240.0 630.3M304.0 630.5L299.5 632.0M312.0 628.7L304.0 630.5M320.0 627.7L312.0 628.7M328.0 626.2L320.0 627.7M334.7 624.0L328.0 626.2M415.5 624.0L416.0 624.4M424.0 627.2L416.0 624.4M430.1 624.0L424.0 627.2M536.0 630.9L532.4 632.0M539.3 632.0L536.0 630.9M640.0 626.0L639.0 632.0M640.6 624.0L640.0 626.0M656.0 630.8L653.7 632.0M664.0 626.9L656.0 630.8M672.0 624.8L664.0 626.9M675.8 624.0L672.0 624.8M242.4 632.0L248.0 637.0M251.9 640.0L248.0 637.0M288.0 636.8L281.4 640.0M296.0 633.3L288.0 636.8M299.5 632.0L296.0 633.3M528.0 635.5L526.4 640.0M532.4 632.0L528.0 635.5M539.3 632.0L544.0 635.2M547.0 640.0L544.0 635.2M639.0 632.0L640.0 634.1M648.0 634.8L640.0 634.1M653.7 632.0L648.0 634.8M251.9 640.0L256.0 642.9M264.0 645.0L256.0 642.9M272.0 643.4L264.0 645.0M280.0 640.6L272.0 643.4M281.4 640.0L280.0 640.6M526.4 640.0L526.3 648.0M547.0 640.0L549.0 648.0M526.3 648.0L526.1 656.0M549.0 648.0L552.0 656.0M526.1 656.0L525.7 664.0M552.0 656.0L552.0 656.0M554.9 664.0L552.0 656.0M525.7 664.0L525.1 672.0M554.9 664.0L558.5 672.0M525.1 672.0L524.6 680.0M558.5 672.0L560.0 675.2M562.1 680.0L560.0 675.2M524.6 680.0L524.2 688.0M562.1 680.0L564.5 688.0M524.2 688.0L524.7 696.0M564.5 688.0L565.1 696.0M524.7 696.0L528.0 700.3M532.3 704.0L528.0 700.3M565.1 696.0L565.5 704.0M532.3 704.0L536.0 705.8M544.0 708.1L536.0 705.8M552.0 710.0L544.0 708.1M558.9 712.0L552.0 710.0M565.5 704.0L568.0 708.7M576.0 711.9L568.0 708.7M576.6 712.0L576.0 711.9M616.0 711.9L615.6 712.0M624.0 709.2L616.0 711.9M632.0 706.7L624.0 709.2M634.2 712.0L632.0 706.7M558.9 712.0L560.0 712.7M563.6 720.0L560.0 712.7M576.6 712.0L584.0 712.9M592.0 713.6L584.0 712.9M600.0 713.6L592.0 713.6M608.0 713.1L600.0 713.6M615.6 712.0L608.0 713.1M634.2 712.0L636.9 720.0M563.6 720.0L563.9 728.0M636.9 720.0L639.1 728.0M48.0 735.9L45.8 736.0M56.0 735.7L48.0 735.9M57.3 736.0L56.0 735.7M563.9 728.0L564.0 736.0M639.1 728.0L640.0 730.6M640.9 736.0L640.0 730.6M792.0 734.7L787.2 736.0M800.0 733.5L792.0 734.7M804.0 736.0L800.0 733.5M8.0 738.2L0.0 738.4M16.0 737.8L8.0 738.2M24.0 737.4L16.0 737.8M32.0 736.9L24.0 737.4M40.0 736.4L32.0 736.9M45.8 736.0L40.0 736.4M57.3 736.0L64.0 738.0M72.0 742.6L64.0 738.0M74.1 744.0L72.0 742.6M564.0 736.0L564.1 744.0M640.9 736.0L643.1 744.0M752.0 743.6L750.8 744.0M760.0 741.8L752.0 743.6M768.0 740.1L760.0 741.8M776.0 738.4L768.0 740.1M784.0 736.6L776.0 738.4M787.2 736.0L784.0 736.6M804.0 736.0L808.0 737.6M814.5 744.0L808.0 737.6M74.1 744.0L80.0 751.0M80.9 752.0L80.0 751.0M564.1 744.0L564.1 752.0M643.1 744.0L644.6 752.0M744.0 748.8L742.2 752.0M750.8 744.0L744.0 748.8M814.5 744.0L816.0 745.2M822.9 752.0L816.0 745.2M8.0 755.5L0.0 755.0M16.0 757.0L8.0 755.5M24.0 759.7L16.0 757.0M24.7 760.0L24.0 759.7M80.9 752.0L83.5 760.0M564.1 752.0L564.3 760.0M640.0 758.8L638.6 760.0M644.6 752.0L640.0 758.8M742.2 752.0L743.8 760.0M822.9 752.0L824.0 753.3M24.7 760.0L32.0 762.2M40.0 765.5L32.0 762.2M45.1 768.0L40.0 765.5M83.5 760.0L81.3 768.0M136.0 763.9L130.2 768.0M144.0 760.9L136.0 763.9M152.0 761.2L144.0 760.9M160.0 766.8L152.0 761.2M160.8 768.0L160.0 766.8M564.3 760.0L564.5 768.0M632.0 763.3L627.8 768.0M638.6 760.0L632.0 763.3M743.8 760.0L744.0 760.2M752.0 766.5L744.0 760.2M753.8 768.0L752.0 766.5M45.1 768.0L48.0 769.3M56.0 772.5L48.0 769.3M64.0 774.0L56.0 772.5M72.0 773.3L64.0 774.0M80.0 769.2L72.0 773.3M81.3 768.0L80.0 769.2M128.0 771.2L125.5 776.0M130.2 768.0L128.0 771.2M160.8 768.0L163.8 776.0M564.5 768.0L564.9 776.0M624.0 772.0L621.5 776.0M627.8 768.0L624.0 772.0M753.8 768.0L760.0 771.8M766.2 776.0L760.0 771.8M125.5 776.0L124.4 784.0M163.8 776.0L164.8 784.0M564.9 776.0L565.2 784.0M621.5 776.0L617.6 784.0M766.2 776.0L768.0 777.3M776.0 783.3L768.0 777.3M777.1 784.0L776.0 783.3M124.4 784.0L124.6 792.0M164.8 784.0L165.1 792.0M565.2 784.0L565.4 792.0M616.0 789.2L615.3 792.0M617.6 784.0L616.0 789.2M777.1 784.0L784.0 790.6M785.9 792.0L784.0 790.6M124.6 792.0L124.9 800.0M165.1 792.0L165.1 800.0M565.4 792.0L565.5 800.0M615.3 792.0L614.5 800.0M785.9 792.0L790.2 800.0M124.9 800.0L123.6 808.0M165.1 800.0L164.2 808.0M565.5 800.0L565.7 808.0M614.5 800.0L613.9 808.0M790.2 800.0L789.0 808.0M120.0 814.4L118.5 816.0M123.6 808.0L120.0 814.4M164.2 808.0L161.8 816.0M565.7 808.0L566.4 816.0M613.9 808.0L611.9 816.0M789.0 808.0L784.8 816.0M104.0 822.8L101.5 824.0M112.0 820.2L104.0 822.8M118.5 816.0L112.0 820.2M160.0 819.9L155.6 824.0M161.8 816.0L160.0 819.9M566.4 816.0L568.0 822.8M569.0 824.0L568.0 822.8M608.0 821.7L604.5 824.0M611.9 816.0L608.0 821.7M784.0 816.8L778.2 824.0M784.8 816.0L784.0 816.8"/></g>
  <rect x="101" y="101" width="822" height="822" rx="185" fill="none" stroke="#C98F4F" stroke-opacity=".28" stroke-width="2"/>
  <g transform="translate(290 288) scale(4.45)"><path fill="#C98F4F" d="M0 0H64A31.5 31.5 0 0 1 69.07 62.59L99 100H78L34.8 46H64A14.5 14.5 0 0 0 64 17H17Z"/><path fill="#C98F4F" d="M0 35.1V100H59Z"/></g>
</svg>
