<svg xmlns="http://www.w3.org/2000/svg" viewBox="-4 -4 108 108" role="img" aria-label="Rembrandt">
  <!-- For light backgrounds, 64 px and up. -->
  <path fill="#6A4019" d="M2.55 1.70a0.85 0.85 0 1 0 -1.70 0a0.85 0.85 0 1 0 1.70 0M3.02 39.10a1.32 1.32 0 1 0 -2.64 0a1.32 1.32 0 1 0 2.64 0M3.02 42.50a1.32 1.32 0 1 0 -2.63 0a1.32 1.32 0 1 0 2.63 0M6.43 42.50a1.33 1.33 0 1 0 -2.65 0a1.33 1.33 0 1 0 2.65 0M3.01 45.90a1.31 1.31 0 1 0 -2.62 0a1.31 1.31 0 1 0 2.62 0M6.42 45.90a1.32 1.32 0 1 0 -2.64 0a1.32 1.32 0 1 0 2.64 0M9.83 45.90a1.33 1.33 0 1 0 -2.66 0a1.33 1.33 0 1 0 2.66 0M3.01 49.30a1.31 1.31 0 1 0 -2.61 0a1.31 1.31 0 1 0 2.61 0M6.42 49.30a1.32 1.32 0 1 0 -2.63 0a1.32 1.32 0 1 0 2.63 0M9.83 49.30a1.33 1.33 0 1 0 -2.65 0a1.33 1.33 0 1 0 2.65 0M13.24 49.30a1.34 1.34 0 1 0 -2.67 0a1.34 1.34 0 1 0 2.67 0M3.00 52.70a1.30 1.30 0 1 0 -2.60 0a1.30 1.30 0 1 0 2.60 0M6.41 52.70a1.31 1.31 0 1 0 -2.62 0a1.31 1.31 0 1 0 2.62 0M9.82 52.70a1.32 1.32 0 1 0 -2.64 0a1.32 1.32 0 1 0 2.64 0M13.23 52.70a1.33 1.33 0 1 0 -2.66 0a1.33 1.33 0 1 0 2.66 0M16.64 52.70a1.34 1.34 0 1 0 -2.68 0a1.34 1.34 0 1 0 2.68 0M3.00 56.10a1.30 1.30 0 1 0 -2.59 0a1.30 1.30 0 1 0 2.59 0M6.41 56.10a1.31 1.31 0 1 0 -2.61 0a1.31 1.31 0 1 0 2.61 0M9.82 56.10a1.32 1.32 0 1 0 -2.63 0a1.32 1.32 0 1 0 2.63 0M13.23 56.10a1.33 1.33 0 1 0 -2.65 0a1.33 1.33 0 1 0 2.65 0M16.63 56.10a1.33 1.33 0 1 0 -2.67 0a1.33 1.33 0 1 0 2.67 0M19.84 56.10a1.14 1.14 0 1 0 -2.28 0a1.14 1.14 0 1 0 2.28 0M2.99 59.50a1.29 1.29 0 1 0 -2.58 0a1.29 1.29 0 1 0 2.58 0M6.40 59.50a1.30 1.30 0 1 0 -2.60 0a1.30 1.30 0 1 0 2.60 0M9.81 59.50a1.31 1.31 0 1 0 -2.62 0a1.31 1.31 0 1 0 2.62 0M13.22 59.50a1.32 1.32 0 1 0 -2.64 0a1.32 1.32 0 1 0 2.64 0M16.63 59.50a1.33 1.33 0 1 0 -2.66 0a1.33 1.33 0 1 0 2.66 0M20.04 59.50a1.34 1.34 0 1 0 -2.67 0a1.34 1.34 0 1 0 2.67 0M23.01 59.50a0.91 0.91 0 1 0 -1.82 0a0.91 0.91 0 1 0 1.82 0M2.99 62.90a1.29 1.29 0 1 0 -2.57 0a1.29 1.29 0 1 0 2.57 0M6.39 62.90a1.29 1.29 0 1 0 -2.59 0a1.29 1.29 0 1 0 2.59 0M9.80 62.90a1.30 1.30 0 1 0 -2.61 0a1.30 1.30 0 1 0 2.61 0M13.21 62.90a1.31 1.31 0 1 0 -2.63 0a1.31 1.31 0 1 0 2.63 0M16.62 62.90a1.32 1.32 0 1 0 -2.64 0a1.32 1.32 0 1 0 2.64 0M20.03 62.90a1.33 1.33 0 1 0 -2.66 0a1.33 1.33 0 1 0 2.66 0M23.44 62.90a1.34 1.34 0 1 0 -2.68 0a1.34 1.34 0 1 0 2.68 0M2.98 66.30a1.28 1.28 0 1 0 -2.56 0a1.28 1.28 0 1 0 2.56 0M6.39 66.30a1.29 1.29 0 1 0 -2.58 0a1.29 1.29 0 1 0 2.58 0M9.80 66.30a1.30 1.30 0 1 0 -2.59 0a1.30 1.30 0 1 0 2.59 0M13.21 66.30a1.31 1.31 0 1 0 -2.61 0a1.31 1.31 0 1 0 2.61 0M16.61 66.30a1.31 1.31 0 1 0 -2.63 0a1.31 1.31 0 1 0 2.63 0M20.02 66.30a1.32 1.32 0 1 0 -2.65 0a1.32 1.32 0 1 0 2.65 0M23.43 66.30a1.33 1.33 0 1 0 -2.66 0a1.33 1.33 0 1 0 2.66 0M26.84 66.30a1.34 1.34 0 1 0 -2.68 0a1.34 1.34 0 1 0 2.68 0M2.97 69.70a1.27 1.27 0 1 0 -2.55 0a1.27 1.27 0 1 0 2.55 0M6.38 69.70a1.28 1.28 0 1 0 -2.56 0a1.28 1.28 0 1 0 2.56 0M9.79 69.70a1.29 1.29 0 1 0 -2.58 0a1.29 1.29 0 1 0 2.58 0M13.20 69.70a1.30 1.30 0 1 0 -2.60 0a1.30 1.30 0 1 0 2.60 0M16.61 69.70a1.31 1.31 0 1 0 -2.62 0a1.31 1.31 0 1 0 2.62 0M20.02 69.70a1.32 1.32 0 1 0 -2.63 0a1.32 1.32 0 1 0 2.63 0M23.42 69.70a1.32 1.32 0 1 0 -2.65 0a1.32 1.32 0 1 0 2.65 0M26.83 69.70a1.33 1.33 0 1 0 -2.67 0a1.33 1.33 0 1 0 2.67 0M30.24 69.70a1.34 1.34 0 1 0 -2.68 0a1.34 1.34 0 1 0 2.68 0M2.97 73.10a1.27 1.27 0 1 0 -2.53 0a1.27 1.27 0 1 0 2.53 0M6.38 73.10a1.28 1.28 0 1 0 -2.55 0a1.28 1.28 0 1 0 2.55 0M9.78 73.10a1.28 1.28 0 1 0 -2.57 0a1.28 1.28 0 1 0 2.57 0M13.19 73.10a1.29 1.29 0 1 0 -2.58 0a1.29 1.29 0 1 0 2.58 0M16.60 73.10a1.30 1.30 0 1 0 -2.60 0a1.30 1.30 0 1 0 2.60 0M20.01 73.10a1.31 1.31 0 1 0 -2.62 0a1.31 1.31 0 1 0 2.62 0M23.42 73.10a1.32 1.32 0 1 0 -2.63 0a1.32 1.32 0 1 0 2.63 0M26.83 73.10a1.33 1.33 0 1 0 -2.65 0a1.33 1.33 0 1 0 2.65 0M30.23 73.10a1.33 1.33 0 1 0 -2.67 0a1.33 1.33 0 1 0 2.67 0M33.64 73.10a1.34 1.34 0 1 0 -2.68 0a1.34 1.34 0 1 0 2.68 0M2.96 76.50a1.26 1.26 0 1 0 -2.52 0a1.26 1.26 0 1 0 2.52 0M6.37 76.50a1.27 1.27 0 1 0 -2.54 0a1.27 1.27 0 1 0 2.54 0M9.78 76.50a1.28 1.28 0 1 0 -2.55 0a1.28 1.28 0 1 0 2.55 0M13.19 76.50a1.29 1.29 0 1 0 -2.57 0a1.29 1.29 0 1 0 2.57 0M16.59 76.50a1.29 1.29 0 1 0 -2.59 0a1.29 1.29 0 1 0 2.59 0M20.00 76.50a1.30 1.30 0 1 0 -2.60 0a1.30 1.30 0 1 0 2.60 0M23.41 76.50a1.31 1.31 0 1 0 -2.62 0a1.31 1.31 0 1 0 2.62 0M26.82 76.50a1.32 1.32 0 1 0 -2.63 0a1.32 1.32 0 1 0 2.63 0M30.23 76.50a1.33 1.33 0 1 0 -2.65 0a1.33 1.33 0 1 0 2.65 0M33.63 76.50a1.33 1.33 0 1 0 -2.67 0a1.33 1.33 0 1 0 2.67 0M37.04 76.50a1.34 1.34 0 1 0 -2.68 0a1.34 1.34 0 1 0 2.68 0M2.96 79.90a1.26 1.26 0 1 0 -2.52 0a1.26 1.26 0 1 0 2.52 0M6.36 79.90a1.26 1.26 0 1 0 -2.52 0a1.26 1.26 0 1 0 2.52 0M9.77 79.90a1.27 1.27 0 1 0 -2.54 0a1.27 1.27 0 1 0 2.54 0M13.18 79.90a1.28 1.28 0 1 0 -2.56 0a1.28 1.28 0 1 0 2.56 0M16.59 79.90a1.29 1.29 0 1 0 -2.57 0a1.29 1.29 0 1 0 2.57 0M19.99 79.90a1.29 1.29 0 1 0 -2.59 0a1.29 1.29 0 1 0 2.59 0M23.40 79.90a1.30 1.30 0 1 0 -2.60 0a1.30 1.30 0 1 0 2.60 0M26.81 79.90a1.31 1.31 0 1 0 -2.62 0a1.31 1.31 0 1 0 2.62 0M30.22 79.90a1.32 1.32 0 1 0 -2.63 0a1.32 1.32 0 1 0 2.63 0M33.62 79.90a1.32 1.32 0 1 0 -2.65 0a1.32 1.32 0 1 0 2.65 0M37.03 79.90a1.33 1.33 0 1 0 -2.66 0a1.33 1.33 0 1 0 2.66 0M40.44 79.90a1.34 1.34 0 1 0 -2.68 0a1.34 1.34 0 1 0 2.68 0M2.96 83.30a1.26 1.26 0 1 0 -2.52 0a1.26 1.26 0 1 0 2.52 0M6.36 83.30a1.26 1.26 0 1 0 -2.52 0a1.26 1.26 0 1 0 2.52 0M9.76 83.30a1.26 1.26 0 1 0 -2.52 0a1.26 1.26 0 1 0 2.52 0M13.17 83.30a1.27 1.27 0 1 0 -2.54 0a1.27 1.27 0 1 0 2.54 0M16.58 83.30a1.28 1.28 0 1 0 -2.56 0a1.28 1.28 0 1 0 2.56 0M19.99 83.30a1.29 1.29 0 1 0 -2.57 0a1.29 1.29 0 1 0 2.57 0M23.39 83.30a1.29 1.29 0 1 0 -2.59 0a1.29 1.29 0 1 0 2.59 0M26.80 83.30a1.30 1.30 0 1 0 -2.60 0a1.30 1.30 0 1 0 2.60 0M30.21 83.30a1.31 1.31 0 1 0 -2.62 0a1.31 1.31 0 1 0 2.62 0M33.62 83.30a1.32 1.32 0 1 0 -2.63 0a1.32 1.32 0 1 0 2.63 0M37.02 83.30a1.32 1.32 0 1 0 -2.65 0a1.32 1.32 0 1 0 2.65 0M40.43 83.30a1.33 1.33 0 1 0 -2.66 0a1.33 1.33 0 1 0 2.66 0M43.84 83.30a1.34 1.34 0 1 0 -2.67 0a1.34 1.34 0 1 0 2.67 0M2.96 86.70a1.26 1.26 0 1 0 -2.52 0a1.26 1.26 0 1 0 2.52 0M6.36 86.70a1.26 1.26 0 1 0 -2.52 0a1.26 1.26 0 1 0 2.52 0M9.76 86.70a1.26 1.26 0 1 0 -2.52 0a1.26 1.26 0 1 0 2.52 0M13.16 86.70a1.26 1.26 0 1 0 -2.53 0a1.26 1.26 0 1 0 2.53 0M16.57 86.70a1.27 1.27 0 1 0 -2.54 0a1.27 1.27 0 1 0 2.54 0M19.98 86.70a1.28 1.28 0 1 0 -2.56 0a1.28 1.28 0 1 0 2.56 0M23.39 86.70a1.29 1.29 0 1 0 -2.57 0a1.29 1.29 0 1 0 2.57 0M26.79 86.70a1.29 1.29 0 1 0 -2.59 0a1.29 1.29 0 1 0 2.59 0M30.20 86.70a1.30 1.30 0 1 0 -2.60 0a1.30 1.30 0 1 0 2.60 0M33.61 86.70a1.31 1.31 0 1 0 -2.61 0a1.31 1.31 0 1 0 2.61 0M37.01 86.70a1.31 1.31 0 1 0 -2.63 0a1.31 1.31 0 1 0 2.63 0M40.42 86.70a1.32 1.32 0 1 0 -2.64 0a1.32 1.32 0 1 0 2.64 0M43.83 86.70a1.33 1.33 0 1 0 -2.65 0a1.33 1.33 0 1 0 2.65 0M47.23 86.70a1.33 1.33 0 1 0 -2.66 0a1.33 1.33 0 1 0 2.66 0M2.96 90.10a1.26 1.26 0 1 0 -2.52 0a1.26 1.26 0 1 0 2.52 0M6.36 90.10a1.26 1.26 0 1 0 -2.52 0a1.26 1.26 0 1 0 2.52 0M9.76 90.10a1.26 1.26 0 1 0 -2.52 0a1.26 1.26 0 1 0 2.52 0M13.16 90.10a1.26 1.26 0 1 0 -2.52 0a1.26 1.26 0 1 0 2.52 0M16.56 90.10a1.26 1.26 0 1 0 -2.52 0a1.26 1.26 0 1 0 2.52 0M19.97 90.10a1.27 1.27 0 1 0 -2.54 0a1.27 1.27 0 1 0 2.54 0M23.38 90.10a1.28 1.28 0 1 0 -2.55 0a1.28 1.28 0 1 0 2.55 0M26.78 90.10a1.28 1.28 0 1 0 -2.57 0a1.28 1.28 0 1 0 2.57 0M30.19 90.10a1.29 1.29 0 1 0 -2.58 0a1.29 1.29 0 1 0 2.58 0M33.60 90.10a1.30 1.30 0 1 0 -2.60 0a1.30 1.30 0 1 0 2.60 0M37.00 90.10a1.30 1.30 0 1 0 -2.61 0a1.30 1.30 0 1 0 2.61 0M40.41 90.10a1.31 1.31 0 1 0 -2.62 0a1.31 1.31 0 1 0 2.62 0M43.82 90.10a1.32 1.32 0 1 0 -2.63 0a1.32 1.32 0 1 0 2.63 0M47.22 90.10a1.32 1.32 0 1 0 -2.65 0a1.32 1.32 0 1 0 2.65 0M50.63 90.10a1.33 1.33 0 1 0 -2.66 0a1.33 1.33 0 1 0 2.66 0M2.96 93.50a1.26 1.26 0 1 0 -2.52 0a1.26 1.26 0 1 0 2.52 0M6.36 93.50a1.26 1.26 0 1 0 -2.52 0a1.26 1.26 0 1 0 2.52 0M9.76 93.50a1.26 1.26 0 1 0 -2.52 0a1.26 1.26 0 1 0 2.52 0M13.16 93.50a1.26 1.26 0 1 0 -2.52 0a1.26 1.26 0 1 0 2.52 0M16.56 93.50a1.26 1.26 0 1 0 -2.52 0a1.26 1.26 0 1 0 2.52 0M19.96 93.50a1.26 1.26 0 1 0 -2.52 0a1.26 1.26 0 1 0 2.52 0M23.37 93.50a1.27 1.27 0 1 0 -2.54 0a1.27 1.27 0 1 0 2.54 0M26.78 93.50a1.28 1.28 0 1 0 -2.55 0a1.28 1.28 0 1 0 2.55 0M30.18 93.50a1.28 1.28 0 1 0 -2.57 0a1.28 1.28 0 1 0 2.57 0M33.59 93.50a1.29 1.29 0 1 0 -2.58 0a1.29 1.29 0 1 0 2.58 0M37.00 93.50a1.30 1.30 0 1 0 -2.59 0a1.30 1.30 0 1 0 2.59 0M40.40 93.50a1.30 1.30 0 1 0 -2.60 0a1.30 1.30 0 1 0 2.60 0M43.81 93.50a1.31 1.31 0 1 0 -2.62 0a1.31 1.31 0 1 0 2.62 0M47.21 93.50a1.31 1.31 0 1 0 -2.63 0a1.31 1.31 0 1 0 2.63 0M50.62 93.50a1.32 1.32 0 1 0 -2.64 0a1.32 1.32 0 1 0 2.64 0M53.84 93.50a1.14 1.14 0 1 0 -2.28 0a1.14 1.14 0 1 0 2.28 0M2.96 96.90a1.26 1.26 0 1 0 -2.52 0a1.26 1.26 0 1 0 2.52 0M6.36 96.90a1.26 1.26 0 1 0 -2.52 0a1.26 1.26 0 1 0 2.52 0M9.76 96.90a1.26 1.26 0 1 0 -2.52 0a1.26 1.26 0 1 0 2.52 0M13.16 96.90a1.26 1.26 0 1 0 -2.52 0a1.26 1.26 0 1 0 2.52 0M16.56 96.90a1.26 1.26 0 1 0 -2.52 0a1.26 1.26 0 1 0 2.52 0M19.96 96.90a1.26 1.26 0 1 0 -2.52 0a1.26 1.26 0 1 0 2.52 0M23.36 96.90a1.26 1.26 0 1 0 -2.52 0a1.26 1.26 0 1 0 2.52 0M26.77 96.90a1.27 1.27 0 1 0 -2.53 0a1.27 1.27 0 1 0 2.53 0M30.17 96.90a1.27 1.27 0 1 0 -2.55 0a1.27 1.27 0 1 0 2.55 0M33.58 96.90a1.28 1.28 0 1 0 -2.56 0a1.28 1.28 0 1 0 2.56 0M36.99 96.90a1.29 1.29 0 1 0 -2.57 0a1.29 1.29 0 1 0 2.57 0M40.39 96.90a1.29 1.29 0 1 0 -2.58 0a1.29 1.29 0 1 0 2.58 0M43.80 96.90a1.30 1.30 0 1 0 -2.60 0a1.30 1.30 0 1 0 2.60 0M47.20 96.90a1.30 1.30 0 1 0 -2.61 0a1.30 1.30 0 1 0 2.61 0M50.61 96.90a1.31 1.31 0 1 0 -2.62 0a1.31 1.31 0 1 0 2.62 0M54.01 96.90a1.31 1.31 0 1 0 -2.63 0a1.31 1.31 0 1 0 2.63 0M57.01 96.90a0.91 0.91 0 1 0 -1.82 0a0.91 0.91 0 1 0 1.82 0M77.84 96.90a1.34 1.34 0 1 0 -2.68 0a1.34 1.34 0 1 0 2.68 0M81.24 96.90a1.34 1.34 0 1 0 -2.69 0a1.34 1.34 0 1 0 2.69 0M84.65 96.90a1.35 1.35 0 1 0 -2.69 0a1.35 1.35 0 1 0 2.69 0M88.05 96.90a1.35 1.35 0 1 0 -2.69 0a1.35 1.35 0 1 0 2.69 0"/><path fill="#A8712F" d="M6.46 1.70a1.36 1.36 0 1 0 -2.71 0a1.36 1.36 0 1 0 2.71 0M9.87 1.70a1.37 1.37 0 1 0 -2.73 0a1.37 1.37 0 1 0 2.73 0M13.28 1.70a1.38 1.38 0 1 0 -2.76 0a1.38 1.38 0 1 0 2.76 0M16.69 1.70a1.39 1.39 0 1 0 -2.78 0a1.39 1.39 0 1 0 2.78 0M20.10 1.70a1.40 1.40 0 1 0 -2.80 0a1.40 1.40 0 1 0 2.80 0M23.51 1.70a1.41 1.41 0 1 0 -2.82 0a1.41 1.41 0 1 0 2.82 0M26.92 1.70a1.42 1.42 0 1 0 -2.85 0a1.42 1.42 0 1 0 2.85 0M30.33 1.70a1.43 1.43 0 1 0 -2.87 0a1.43 1.43 0 1 0 2.87 0M33.74 1.70a1.44 1.44 0 1 0 -2.89 0a1.44 1.44 0 1 0 2.89 0M37.16 1.70a1.46 1.46 0 1 0 -2.91 0a1.46 1.46 0 1 0 2.91 0M40.57 1.70a1.47 1.47 0 1 0 -2.93 0a1.47 1.47 0 1 0 2.93 0M43.98 1.70a1.48 1.48 0 1 0 -2.96 0a1.48 1.48 0 1 0 2.96 0M47.39 1.70a1.49 1.49 0 1 0 -2.98 0a1.49 1.49 0 1 0 2.98 0M50.80 1.70a1.50 1.50 0 1 0 -3.00 0a1.50 1.50 0 1 0 3.00 0M5.95 5.10a0.85 0.85 0 1 0 -1.70 0a0.85 0.85 0 1 0 1.70 0M9.87 5.10a1.37 1.37 0 1 0 -2.73 0a1.37 1.37 0 1 0 2.73 0M13.28 5.10a1.38 1.38 0 1 0 -2.76 0a1.38 1.38 0 1 0 2.76 0M16.69 5.10a1.39 1.39 0 1 0 -2.78 0a1.39 1.39 0 1 0 2.78 0M20.10 5.10a1.40 1.40 0 1 0 -2.80 0a1.40 1.40 0 1 0 2.80 0M23.51 5.10a1.41 1.41 0 1 0 -2.82 0a1.41 1.41 0 1 0 2.82 0M26.92 5.10a1.42 1.42 0 1 0 -2.84 0a1.42 1.42 0 1 0 2.84 0M30.33 5.10a1.43 1.43 0 1 0 -2.87 0a1.43 1.43 0 1 0 2.87 0M33.74 5.10a1.44 1.44 0 1 0 -2.89 0a1.44 1.44 0 1 0 2.89 0M37.16 5.10a1.46 1.46 0 1 0 -2.91 0a1.46 1.46 0 1 0 2.91 0M40.57 5.10a1.47 1.47 0 1 0 -2.93 0a1.47 1.47 0 1 0 2.93 0M43.98 5.10a1.48 1.48 0 1 0 -2.96 0a1.48 1.48 0 1 0 2.96 0M47.39 5.10a1.49 1.49 0 1 0 -2.98 0a1.49 1.49 0 1 0 2.98 0M50.80 5.10a1.50 1.50 0 1 0 -3.00 0a1.50 1.50 0 1 0 3.00 0M54.21 5.10a1.51 1.51 0 1 0 -3.02 0a1.51 1.51 0 1 0 3.02 0M9.35 8.50a0.85 0.85 0 1 0 -1.70 0a0.85 0.85 0 1 0 1.70 0M13.28 8.50a1.38 1.38 0 1 0 -2.75 0a1.38 1.38 0 1 0 2.75 0M16.69 8.50a1.39 1.39 0 1 0 -2.78 0a1.39 1.39 0 1 0 2.78 0M20.10 8.50a1.40 1.40 0 1 0 -2.80 0a1.40 1.40 0 1 0 2.80 0M23.51 8.50a1.41 1.41 0 1 0 -2.82 0a1.41 1.41 0 1 0 2.82 0M26.92 8.50a1.42 1.42 0 1 0 -2.84 0a1.42 1.42 0 1 0 2.84 0M30.33 8.50a1.43 1.43 0 1 0 -2.86 0a1.43 1.43 0 1 0 2.86 0M33.74 8.50a1.44 1.44 0 1 0 -2.89 0a1.44 1.44 0 1 0 2.89 0M37.15 8.50a1.45 1.45 0 1 0 -2.91 0a1.45 1.45 0 1 0 2.91 0M40.57 8.50a1.47 1.47 0 1 0 -2.93 0a1.47 1.47 0 1 0 2.93 0M43.98 8.50a1.48 1.48 0 1 0 -2.95 0a1.48 1.48 0 1 0 2.95 0M47.39 8.50a1.49 1.49 0 1 0 -2.97 0a1.49 1.49 0 1 0 2.97 0M50.80 8.50a1.50 1.50 0 1 0 -3.00 0a1.50 1.50 0 1 0 3.00 0M54.21 8.50a1.51 1.51 0 1 0 -3.02 0a1.51 1.51 0 1 0 3.02 0M12.75 11.90a0.85 0.85 0 1 0 -1.70 0a0.85 0.85 0 1 0 1.70 0M16.69 11.90a1.39 1.39 0 1 0 -2.77 0a1.39 1.39 0 1 0 2.77 0M20.10 11.90a1.40 1.40 0 1 0 -2.80 0a1.40 1.40 0 1 0 2.80 0M23.51 11.90a1.41 1.41 0 1 0 -2.82 0a1.41 1.41 0 1 0 2.82 0M26.92 11.90a1.42 1.42 0 1 0 -2.84 0a1.42 1.42 0 1 0 2.84 0M30.33 11.90a1.43 1.43 0 1 0 -2.86 0a1.43 1.43 0 1 0 2.86 0M33.74 11.90a1.44 1.44 0 1 0 -2.88 0a1.44 1.44 0 1 0 2.88 0M37.15 11.90a1.45 1.45 0 1 0 -2.91 0a1.45 1.45 0 1 0 2.91 0M40.56 11.90a1.46 1.46 0 1 0 -2.93 0a1.46 1.46 0 1 0 2.93 0M43.97 11.90a1.47 1.47 0 1 0 -2.95 0a1.47 1.47 0 1 0 2.95 0M47.39 11.90a1.49 1.49 0 1 0 -2.97 0a1.49 1.49 0 1 0 2.97 0M50.80 11.90a1.50 1.50 0 1 0 -2.99 0a1.50 1.50 0 1 0 2.99 0M54.21 11.90a1.51 1.51 0 1 0 -3.01 0a1.51 1.51 0 1 0 3.01 0M16.15 15.30a0.85 0.85 0 1 0 -1.70 0a0.85 0.85 0 1 0 1.70 0M20.10 15.30a1.40 1.40 0 1 0 -2.79 0a1.40 1.40 0 1 0 2.79 0M23.51 15.30a1.41 1.41 0 1 0 -2.81 0a1.41 1.41 0 1 0 2.81 0M26.92 15.30a1.42 1.42 0 1 0 -2.84 0a1.42 1.42 0 1 0 2.84 0M30.33 15.30a1.43 1.43 0 1 0 -2.86 0a1.43 1.43 0 1 0 2.86 0M33.74 15.30a1.44 1.44 0 1 0 -2.88 0a1.44 1.44 0 1 0 2.88 0M37.15 15.30a1.45 1.45 0 1 0 -2.90 0a1.45 1.45 0 1 0 2.90 0M40.56 15.30a1.46 1.46 0 1 0 -2.92 0a1.46 1.46 0 1 0 2.92 0M43.97 15.30a1.47 1.47 0 1 0 -2.94 0a1.47 1.47 0 1 0 2.94 0M47.38 15.30a1.48 1.48 0 1 0 -2.96 0a1.48 1.48 0 1 0 2.96 0M50.79 15.30a1.49 1.49 0 1 0 -2.99 0a1.49 1.49 0 1 0 2.99 0M54.20 15.30a1.50 1.50 0 1 0 -3.01 0a1.50 1.50 0 1 0 3.01 0M78.01 42.50a1.51 1.51 0 1 0 -3.01 0a1.51 1.51 0 1 0 3.01 0M67.24 45.90a0.94 0.94 0 1 0 -1.88 0a0.94 0.94 0 1 0 1.88 0M71.19 45.90a1.49 1.49 0 1 0 -2.97 0a1.49 1.49 0 1 0 2.97 0M74.59 45.90a1.49 1.49 0 1 0 -2.98 0a1.49 1.49 0 1 0 2.98 0M78.00 45.90a1.50 1.50 0 1 0 -3.00 0a1.50 1.50 0 1 0 3.00 0M81.40 45.90a1.50 1.50 0 1 0 -3.00 0a1.50 1.50 0 1 0 3.00 0M84.81 45.90a1.51 1.51 0 1 0 -3.01 0a1.51 1.51 0 1 0 3.01 0M88.21 45.90a1.51 1.51 0 1 0 -3.02 0a1.51 1.51 0 1 0 3.02 0M40.51 49.30a1.41 1.41 0 1 0 -2.82 0a1.41 1.41 0 1 0 2.82 0M43.92 49.30a1.42 1.42 0 1 0 -2.84 0a1.42 1.42 0 1 0 2.84 0M47.33 49.30a1.43 1.43 0 1 0 -2.85 0a1.43 1.43 0 1 0 2.85 0M50.74 49.30a1.44 1.44 0 1 0 -2.87 0a1.44 1.44 0 1 0 2.87 0M54.14 49.30a1.44 1.44 0 1 0 -2.89 0a1.44 1.44 0 1 0 2.89 0M57.55 49.30a1.45 1.45 0 1 0 -2.90 0a1.45 1.45 0 1 0 2.90 0M60.96 49.30a1.46 1.46 0 1 0 -2.92 0a1.46 1.46 0 1 0 2.92 0M64.36 49.30a1.46 1.46 0 1 0 -2.93 0a1.46 1.46 0 1 0 2.93 0M67.77 49.30a1.47 1.47 0 1 0 -2.94 0a1.47 1.47 0 1 0 2.94 0M71.18 49.30a1.48 1.48 0 1 0 -2.95 0a1.48 1.48 0 1 0 2.95 0M74.58 49.30a1.48 1.48 0 1 0 -2.97 0a1.48 1.48 0 1 0 2.97 0M77.99 49.30a1.49 1.49 0 1 0 -2.98 0a1.49 1.49 0 1 0 2.98 0M81.39 49.30a1.49 1.49 0 1 0 -2.98 0a1.49 1.49 0 1 0 2.98 0M84.80 49.30a1.50 1.50 0 1 0 -2.99 0a1.50 1.50 0 1 0 2.99 0M88.20 49.30a1.50 1.50 0 1 0 -3.00 0a1.50 1.50 0 1 0 3.00 0M43.91 52.70a1.41 1.41 0 1 0 -2.82 0a1.41 1.41 0 1 0 2.82 0M47.32 52.70a1.42 1.42 0 1 0 -2.84 0a1.42 1.42 0 1 0 2.84 0M50.73 52.70a1.43 1.43 0 1 0 -2.85 0a1.43 1.43 0 1 0 2.85 0M54.13 52.70a1.43 1.43 0 1 0 -2.87 0a1.43 1.43 0 1 0 2.87 0M57.54 52.70a1.44 1.44 0 1 0 -2.88 0a1.44 1.44 0 1 0 2.88 0M60.95 52.70a1.45 1.45 0 1 0 -2.90 0a1.45 1.45 0 1 0 2.90 0M64.36 52.70a1.46 1.46 0 1 0 -2.91 0a1.46 1.46 0 1 0 2.91 0M67.76 52.70a1.46 1.46 0 1 0 -2.92 0a1.46 1.46 0 1 0 2.92 0M71.17 52.70a1.47 1.47 0 1 0 -2.94 0a1.47 1.47 0 1 0 2.94 0M74.57 52.70a1.47 1.47 0 1 0 -2.95 0a1.47 1.47 0 1 0 2.95 0M77.98 52.70a1.48 1.48 0 1 0 -2.96 0a1.48 1.48 0 1 0 2.96 0M81.38 52.70a1.48 1.48 0 1 0 -2.96 0a1.48 1.48 0 1 0 2.96 0M84.79 52.70a1.49 1.49 0 1 0 -2.97 0a1.49 1.49 0 1 0 2.97 0M87.98 52.70a1.28 1.28 0 1 0 -2.55 0a1.28 1.28 0 1 0 2.55 0M47.31 56.10a1.41 1.41 0 1 0 -2.82 0a1.41 1.41 0 1 0 2.82 0M50.72 56.10a1.42 1.42 0 1 0 -2.84 0a1.42 1.42 0 1 0 2.84 0M54.13 56.10a1.43 1.43 0 1 0 -2.85 0a1.43 1.43 0 1 0 2.85 0M57.53 56.10a1.43 1.43 0 1 0 -2.87 0a1.43 1.43 0 1 0 2.87 0M60.94 56.10a1.44 1.44 0 1 0 -2.88 0a1.44 1.44 0 1 0 2.88 0M64.35 56.10a1.45 1.45 0 1 0 -2.89 0a1.45 1.45 0 1 0 2.89 0M67.75 56.10a1.45 1.45 0 1 0 -2.90 0a1.45 1.45 0 1 0 2.90 0M71.16 56.10a1.46 1.46 0 1 0 -2.92 0a1.46 1.46 0 1 0 2.92 0M74.56 56.10a1.46 1.46 0 1 0 -2.93 0a1.46 1.46 0 1 0 2.93 0M77.97 56.10a1.47 1.47 0 1 0 -2.93 0a1.47 1.47 0 1 0 2.93 0M81.37 56.10a1.47 1.47 0 1 0 -2.94 0a1.47 1.47 0 1 0 2.94 0M84.38 56.10a1.08 1.08 0 1 0 -2.15 0a1.08 1.08 0 1 0 2.15 0M46.98 59.50a1.08 1.08 0 1 0 -2.17 0a1.08 1.08 0 1 0 2.17 0M50.71 59.50a1.41 1.41 0 1 0 -2.82 0a1.41 1.41 0 1 0 2.82 0M54.12 59.50a1.42 1.42 0 1 0 -2.84 0a1.42 1.42 0 1 0 2.84 0M57.52 59.50a1.42 1.42 0 1 0 -2.85 0a1.42 1.42 0 1 0 2.85 0M60.93 59.50a1.43 1.43 0 1 0 -2.86 0a1.43 1.43 0 1 0 2.86 0M64.34 59.50a1.44 1.44 0 1 0 -2.87 0a1.44 1.44 0 1 0 2.87 0M67.74 59.50a1.44 1.44 0 1 0 -2.89 0a1.44 1.44 0 1 0 2.89 0M71.15 59.50a1.45 1.45 0 1 0 -2.90 0a1.45 1.45 0 1 0 2.90 0M74.55 59.50a1.45 1.45 0 1 0 -2.91 0a1.45 1.45 0 1 0 2.91 0M77.96 59.50a1.46 1.46 0 1 0 -2.91 0a1.46 1.46 0 1 0 2.91 0M50.70 62.90a1.40 1.40 0 1 0 -2.80 0a1.40 1.40 0 1 0 2.80 0M54.11 62.90a1.41 1.41 0 1 0 -2.82 0a1.41 1.41 0 1 0 2.82 0M57.52 62.90a1.42 1.42 0 1 0 -2.83 0a1.42 1.42 0 1 0 2.83 0M60.92 62.90a1.42 1.42 0 1 0 -2.84 0a1.42 1.42 0 1 0 2.84 0M64.33 62.90a1.43 1.43 0 1 0 -2.86 0a1.43 1.43 0 1 0 2.86 0M67.73 62.90a1.43 1.43 0 1 0 -2.87 0a1.43 1.43 0 1 0 2.87 0M54.10 66.30a1.40 1.40 0 1 0 -2.80 0a1.40 1.40 0 1 0 2.80 0M57.51 66.30a1.41 1.41 0 1 0 -2.81 0a1.41 1.41 0 1 0 2.81 0M60.91 66.30a1.41 1.41 0 1 0 -2.82 0a1.41 1.41 0 1 0 2.82 0M64.32 66.30a1.42 1.42 0 1 0 -2.84 0a1.42 1.42 0 1 0 2.84 0M67.72 66.30a1.42 1.42 0 1 0 -2.85 0a1.42 1.42 0 1 0 2.85 0M71.13 66.30a1.43 1.43 0 1 0 -2.86 0a1.43 1.43 0 1 0 2.86 0M57.50 69.70a1.40 1.40 0 1 0 -2.79 0a1.40 1.40 0 1 0 2.79 0M60.90 69.70a1.40 1.40 0 1 0 -2.81 0a1.40 1.40 0 1 0 2.81 0M64.31 69.70a1.41 1.41 0 1 0 -2.82 0a1.41 1.41 0 1 0 2.82 0M67.71 69.70a1.41 1.41 0 1 0 -2.83 0a1.41 1.41 0 1 0 2.83 0M71.12 69.70a1.42 1.42 0 1 0 -2.84 0a1.42 1.42 0 1 0 2.84 0M74.52 69.70a1.42 1.42 0 1 0 -2.84 0a1.42 1.42 0 1 0 2.84 0M60.89 73.10a1.39 1.39 0 1 0 -2.79 0a1.39 1.39 0 1 0 2.79 0M64.30 73.10a1.40 1.40 0 1 0 -2.80 0a1.40 1.40 0 1 0 2.80 0M67.70 73.10a1.40 1.40 0 1 0 -2.81 0a1.40 1.40 0 1 0 2.81 0M71.11 73.10a1.41 1.41 0 1 0 -2.82 0a1.41 1.41 0 1 0 2.82 0M74.51 73.10a1.41 1.41 0 1 0 -2.82 0a1.41 1.41 0 1 0 2.82 0M77.92 73.10a1.42 1.42 0 1 0 -2.83 0a1.42 1.42 0 1 0 2.83 0M60.58 76.50a1.08 1.08 0 1 0 -2.17 0a1.08 1.08 0 1 0 2.17 0M64.29 76.50a1.39 1.39 0 1 0 -2.78 0a1.39 1.39 0 1 0 2.78 0M67.69 76.50a1.39 1.39 0 1 0 -2.79 0a1.39 1.39 0 1 0 2.79 0M71.10 76.50a1.40 1.40 0 1 0 -2.79 0a1.40 1.40 0 1 0 2.79 0M74.50 76.50a1.40 1.40 0 1 0 -2.80 0a1.40 1.40 0 1 0 2.80 0M77.90 76.50a1.40 1.40 0 1 0 -2.81 0a1.40 1.40 0 1 0 2.81 0M80.98 76.50a1.08 1.08 0 1 0 -2.17 0a1.08 1.08 0 1 0 2.17 0M64.28 79.90a1.38 1.38 0 1 0 -2.76 0a1.38 1.38 0 1 0 2.76 0M67.68 79.90a1.38 1.38 0 1 0 -2.77 0a1.38 1.38 0 1 0 2.77 0M71.09 79.90a1.39 1.39 0 1 0 -2.77 0a1.39 1.39 0 1 0 2.77 0M74.49 79.90a1.39 1.39 0 1 0 -2.78 0a1.39 1.39 0 1 0 2.78 0M77.89 79.90a1.39 1.39 0 1 0 -2.79 0a1.39 1.39 0 1 0 2.79 0M81.30 79.90a1.40 1.40 0 1 0 -2.79 0a1.40 1.40 0 1 0 2.79 0M67.67 83.30a1.37 1.37 0 1 0 -2.75 0a1.37 1.37 0 1 0 2.75 0M71.08 83.30a1.38 1.38 0 1 0 -2.75 0a1.38 1.38 0 1 0 2.75 0M74.48 83.30a1.38 1.38 0 1 0 -2.76 0a1.38 1.38 0 1 0 2.76 0M77.88 83.30a1.38 1.38 0 1 0 -2.77 0a1.38 1.38 0 1 0 2.77 0M81.29 83.30a1.39 1.39 0 1 0 -2.77 0a1.39 1.39 0 1 0 2.77 0M84.69 83.30a1.39 1.39 0 1 0 -2.78 0a1.39 1.39 0 1 0 2.78 0M71.07 86.70a1.37 1.37 0 1 0 -2.73 0a1.37 1.37 0 1 0 2.73 0M74.47 86.70a1.37 1.37 0 1 0 -2.74 0a1.37 1.37 0 1 0 2.74 0M77.87 86.70a1.37 1.37 0 1 0 -2.75 0a1.37 1.37 0 1 0 2.75 0M81.28 86.70a1.38 1.38 0 1 0 -2.75 0a1.38 1.38 0 1 0 2.75 0M84.68 86.70a1.38 1.38 0 1 0 -2.76 0a1.38 1.38 0 1 0 2.76 0M88.08 86.70a1.38 1.38 0 1 0 -2.76 0a1.38 1.38 0 1 0 2.76 0M74.46 90.10a1.36 1.36 0 1 0 -2.72 0a1.36 1.36 0 1 0 2.72 0M77.86 90.10a1.36 1.36 0 1 0 -2.72 0a1.36 1.36 0 1 0 2.72 0M81.26 90.10a1.36 1.36 0 1 0 -2.73 0a1.36 1.36 0 1 0 2.73 0M84.67 90.10a1.37 1.37 0 1 0 -2.73 0a1.37 1.37 0 1 0 2.73 0M88.07 90.10a1.37 1.37 0 1 0 -2.74 0a1.37 1.37 0 1 0 2.74 0M91.47 90.10a1.37 1.37 0 1 0 -2.74 0a1.37 1.37 0 1 0 2.74 0M74.18 93.50a1.08 1.08 0 1 0 -2.17 0a1.08 1.08 0 1 0 2.17 0M77.85 93.50a1.35 1.35 0 1 0 -2.70 0a1.35 1.35 0 1 0 2.70 0M81.25 93.50a1.35 1.35 0 1 0 -2.71 0a1.35 1.35 0 1 0 2.71 0M84.66 93.50a1.36 1.36 0 1 0 -2.71 0a1.36 1.36 0 1 0 2.71 0M88.06 93.50a1.36 1.36 0 1 0 -2.72 0a1.36 1.36 0 1 0 2.72 0M91.46 93.50a1.36 1.36 0 1 0 -2.72 0a1.36 1.36 0 1 0 2.72 0M94.58 93.50a1.08 1.08 0 1 0 -2.17 0a1.08 1.08 0 1 0 2.17 0M91.45 96.90a1.35 1.35 0 1 0 -2.70 0a1.35 1.35 0 1 0 2.70 0M94.85 96.90a1.35 1.35 0 1 0 -2.70 0a1.35 1.35 0 1 0 2.70 0"/><path fill="#C98F4F" d="M54.21 1.70a1.51 1.51 0 1 0 -3.02 0a1.51 1.51 0 1 0 3.02 0M57.62 1.70a1.52 1.52 0 1 0 -3.05 0a1.52 1.52 0 1 0 3.05 0M61.03 1.70a1.53 1.53 0 1 0 -3.07 0a1.53 1.53 0 1 0 3.07 0M64.44 1.70a1.54 1.54 0 1 0 -3.09 0a1.54 1.54 0 1 0 3.09 0M67.86 1.70a1.56 1.56 0 1 0 -3.11 0a1.56 1.56 0 1 0 3.11 0M71.27 1.70a1.57 1.57 0 1 0 -3.13 0a1.57 1.57 0 1 0 3.13 0M74.28 1.70a1.18 1.18 0 1 0 -2.36 0a1.18 1.18 0 1 0 2.36 0M57.62 5.10a1.52 1.52 0 1 0 -3.04 0a1.52 1.52 0 1 0 3.04 0M61.03 5.10a1.53 1.53 0 1 0 -3.07 0a1.53 1.53 0 1 0 3.07 0M64.44 5.10a1.54 1.54 0 1 0 -3.09 0a1.54 1.54 0 1 0 3.09 0M67.85 5.10a1.55 1.55 0 1 0 -3.11 0a1.55 1.55 0 1 0 3.11 0M71.27 5.10a1.57 1.57 0 1 0 -3.13 0a1.57 1.57 0 1 0 3.13 0M74.68 5.10a1.58 1.58 0 1 0 -3.15 0a1.58 1.58 0 1 0 3.15 0M78.09 5.10a1.59 1.59 0 1 0 -3.18 0a1.59 1.59 0 1 0 3.18 0M81.42 5.10a1.52 1.52 0 1 0 -3.04 0a1.52 1.52 0 1 0 3.04 0M57.62 8.50a1.52 1.52 0 1 0 -3.04 0a1.52 1.52 0 1 0 3.04 0M61.03 8.50a1.53 1.53 0 1 0 -3.06 0a1.53 1.53 0 1 0 3.06 0M64.44 8.50a1.54 1.54 0 1 0 -3.08 0a1.54 1.54 0 1 0 3.08 0M67.85 8.50a1.55 1.55 0 1 0 -3.11 0a1.55 1.55 0 1 0 3.11 0M71.26 8.50a1.56 1.56 0 1 0 -3.13 0a1.56 1.56 0 1 0 3.13 0M74.67 8.50a1.57 1.57 0 1 0 -3.15 0a1.57 1.57 0 1 0 3.15 0M78.08 8.50a1.58 1.58 0 1 0 -3.17 0a1.58 1.58 0 1 0 3.17 0M81.49 8.50a1.59 1.59 0 1 0 -3.19 0a1.59 1.59 0 1 0 3.19 0M84.90 8.50a1.60 1.60 0 1 0 -3.21 0a1.60 1.60 0 1 0 3.21 0M57.62 11.90a1.52 1.52 0 1 0 -3.04 0a1.52 1.52 0 1 0 3.04 0M61.03 11.90a1.53 1.53 0 1 0 -3.06 0a1.53 1.53 0 1 0 3.06 0M64.44 11.90a1.54 1.54 0 1 0 -3.08 0a1.54 1.54 0 1 0 3.08 0M67.85 11.90a1.55 1.55 0 1 0 -3.10 0a1.55 1.55 0 1 0 3.10 0M71.26 11.90a1.56 1.56 0 1 0 -3.12 0a1.56 1.56 0 1 0 3.12 0M74.67 11.90a1.57 1.57 0 1 0 -3.14 0a1.57 1.57 0 1 0 3.14 0M78.08 11.90a1.58 1.58 0 1 0 -3.16 0a1.58 1.58 0 1 0 3.16 0M81.49 11.90a1.59 1.59 0 1 0 -3.18 0a1.59 1.59 0 1 0 3.18 0M84.90 11.90a1.60 1.60 0 1 0 -3.20 0a1.60 1.60 0 1 0 3.20 0M88.31 11.90a1.61 1.61 0 1 0 -3.22 0a1.61 1.61 0 1 0 3.22 0M57.61 15.30a1.51 1.51 0 1 0 -3.03 0a1.51 1.51 0 1 0 3.03 0M61.02 15.30a1.52 1.52 0 1 0 -3.05 0a1.52 1.52 0 1 0 3.05 0M64.44 15.30a1.54 1.54 0 1 0 -3.07 0a1.54 1.54 0 1 0 3.07 0M67.85 15.30a1.55 1.55 0 1 0 -3.09 0a1.55 1.55 0 1 0 3.09 0M71.26 15.30a1.56 1.56 0 1 0 -3.11 0a1.56 1.56 0 1 0 3.11 0M74.66 15.30a1.56 1.56 0 1 0 -3.13 0a1.56 1.56 0 1 0 3.13 0M78.07 15.30a1.57 1.57 0 1 0 -3.15 0a1.57 1.57 0 1 0 3.15 0M81.48 15.30a1.58 1.58 0 1 0 -3.17 0a1.58 1.58 0 1 0 3.17 0M84.89 15.30a1.59 1.59 0 1 0 -3.18 0a1.59 1.59 0 1 0 3.18 0M88.30 15.30a1.60 1.60 0 1 0 -3.20 0a1.60 1.60 0 1 0 3.20 0M91.71 15.30a1.61 1.61 0 1 0 -3.21 0a1.61 1.61 0 1 0 3.21 0M74.66 18.70a1.56 1.56 0 1 0 -3.12 0a1.56 1.56 0 1 0 3.12 0M78.07 18.70a1.57 1.57 0 1 0 -3.14 0a1.57 1.57 0 1 0 3.14 0M81.48 18.70a1.58 1.58 0 1 0 -3.15 0a1.58 1.58 0 1 0 3.15 0M84.88 18.70a1.58 1.58 0 1 0 -3.17 0a1.58 1.58 0 1 0 3.17 0M88.29 18.70a1.59 1.59 0 1 0 -3.18 0a1.59 1.59 0 1 0 3.18 0M91.70 18.70a1.60 1.60 0 1 0 -3.19 0a1.60 1.60 0 1 0 3.19 0M78.06 22.10a1.56 1.56 0 1 0 -3.12 0a1.56 1.56 0 1 0 3.12 0M81.47 22.10a1.57 1.57 0 1 0 -3.14 0a1.57 1.57 0 1 0 3.14 0M84.88 22.10a1.58 1.58 0 1 0 -3.15 0a1.58 1.58 0 1 0 3.15 0M88.28 22.10a1.58 1.58 0 1 0 -3.16 0a1.58 1.58 0 1 0 3.16 0M91.69 22.10a1.59 1.59 0 1 0 -3.17 0a1.59 1.59 0 1 0 3.17 0M94.88 22.10a1.38 1.38 0 1 0 -2.75 0a1.38 1.38 0 1 0 2.75 0M81.46 25.50a1.56 1.56 0 1 0 -3.12 0a1.56 1.56 0 1 0 3.12 0M84.87 25.50a1.57 1.57 0 1 0 -3.13 0a1.57 1.57 0 1 0 3.13 0M88.27 25.50a1.57 1.57 0 1 0 -3.14 0a1.57 1.57 0 1 0 3.14 0M91.68 25.50a1.58 1.58 0 1 0 -3.15 0a1.58 1.58 0 1 0 3.15 0M95.08 25.50a1.58 1.58 0 1 0 -3.16 0a1.58 1.58 0 1 0 3.16 0M81.45 28.90a1.55 1.55 0 1 0 -3.10 0a1.55 1.55 0 1 0 3.10 0M84.86 28.90a1.56 1.56 0 1 0 -3.11 0a1.56 1.56 0 1 0 3.11 0M88.26 28.90a1.56 1.56 0 1 0 -3.12 0a1.56 1.56 0 1 0 3.12 0M91.67 28.90a1.57 1.57 0 1 0 -3.13 0a1.57 1.57 0 1 0 3.13 0M95.07 28.90a1.57 1.57 0 1 0 -3.14 0a1.57 1.57 0 1 0 3.14 0M81.44 32.30a1.54 1.54 0 1 0 -3.08 0a1.54 1.54 0 1 0 3.08 0M84.85 32.30a1.55 1.55 0 1 0 -3.09 0a1.55 1.55 0 1 0 3.09 0M88.25 32.30a1.55 1.55 0 1 0 -3.10 0a1.55 1.55 0 1 0 3.10 0M91.66 32.30a1.56 1.56 0 1 0 -3.11 0a1.56 1.56 0 1 0 3.11 0M95.06 32.30a1.56 1.56 0 1 0 -3.12 0a1.56 1.56 0 1 0 3.12 0M81.43 35.70a1.53 1.53 0 1 0 -3.06 0a1.53 1.53 0 1 0 3.06 0M84.84 35.70a1.54 1.54 0 1 0 -3.07 0a1.54 1.54 0 1 0 3.07 0M88.24 35.70a1.54 1.54 0 1 0 -3.08 0a1.54 1.54 0 1 0 3.08 0M91.65 35.70a1.55 1.55 0 1 0 -3.09 0a1.55 1.55 0 1 0 3.09 0M95.05 35.70a1.55 1.55 0 1 0 -3.10 0a1.55 1.55 0 1 0 3.10 0M77.49 39.10a0.99 0.99 0 1 0 -1.97 0a0.99 0.99 0 1 0 1.97 0M81.42 39.10a1.52 1.52 0 1 0 -3.05 0a1.52 1.52 0 1 0 3.05 0M84.83 39.10a1.53 1.53 0 1 0 -3.05 0a1.53 1.53 0 1 0 3.05 0M88.23 39.10a1.53 1.53 0 1 0 -3.06 0a1.53 1.53 0 1 0 3.06 0M91.63 39.10a1.53 1.53 0 1 0 -3.07 0a1.53 1.53 0 1 0 3.07 0M95.04 39.10a1.54 1.54 0 1 0 -3.07 0a1.54 1.54 0 1 0 3.07 0M81.41 42.50a1.51 1.51 0 1 0 -3.03 0a1.51 1.51 0 1 0 3.03 0M84.82 42.50a1.52 1.52 0 1 0 -3.03 0a1.52 1.52 0 1 0 3.03 0M88.22 42.50a1.52 1.52 0 1 0 -3.04 0a1.52 1.52 0 1 0 3.04 0M91.62 42.50a1.52 1.52 0 1 0 -3.05 0a1.52 1.52 0 1 0 3.05 0M94.36 42.50a0.86 0.86 0 1 0 -1.73 0a0.86 0.86 0 1 0 1.73 0M91.61 45.90a1.51 1.51 0 1 0 -3.03 0a1.51 1.51 0 1 0 3.03 0"/>
</svg>
